<svg width="32" height="32" viewBox="0 0 32 32" fill="none" xmlns="http://www.w3.org/2000/svg">
<path d="M16 32C24.8366 32 32 24.8366 32 16C32 7.16344 24.8366 0 16 0C7.16344 0 0 7.16344 0 16C0 24.8366 7.16344 32 16 32Z" fill="#4712B0"/>
<path d="M9 24.8232C9.33525 24.7257 9.6705 24.616 10.0119 24.5246C11.0237 24.2624 11.4504 23.787 11.554 22.7569C11.5906 22.385 11.615 22.0071 11.615 21.6353C11.6211 17.8012 11.6211 13.9732 11.615 10.1392C11.615 9.79783 11.5967 9.45039 11.5479 9.10904C11.4016 8.13376 10.9262 7.66441 9.90823 7.46935C9.62174 7.41449 9.34135 7.32306 9.06095 7.24992C9.06705 7.20115 9.07315 7.15848 9.07924 7.10972C9.34135 7.07924 9.60345 7.01829 9.86556 7.01829C14.0288 7.0061 18.192 7.0061 22.3613 7C22.4954 7 22.6234 7.0061 22.7575 7.03048C23.1964 7.10362 23.3976 7.31697 23.4402 7.75584C23.5378 8.7555 23.6292 9.74907 23.7206 10.7487C23.7328 10.9011 23.7145 11.0535 23.6901 11.1998C23.678 11.2608 23.6292 11.3461 23.5865 11.3522C23.5378 11.3583 23.4585 11.3034 23.428 11.2547C23.3061 11.023 23.1964 10.7853 23.0928 10.5476C22.9648 10.2611 22.8673 9.96241 22.7271 9.68202C22.215 8.64578 21.3556 8.07281 20.2157 8.03014C18.6431 7.97528 17.0704 8.00576 15.4978 8.01795C14.937 8.02404 14.5713 8.36539 14.4859 8.8957C14.3762 9.61497 14.2848 10.3403 14.2848 11.0657C14.2726 14.7779 14.2848 18.4839 14.3031 22.1961C14.3031 22.5191 14.364 22.8422 14.4372 23.1531C14.6261 24.0064 15.2235 24.4026 16.0342 24.5672C16.3024 24.6221 16.5645 24.6891 16.8266 24.7623C16.8937 24.7806 16.9424 24.8659 17.0034 24.9208C16.9363 24.9451 16.8693 24.9939 16.8022 24.9939C16.0525 25 15.2966 25 14.5469 25C12.8097 25 11.0725 25 9.33525 25C9.23163 25 9.12191 24.9695 9.01829 24.9512C9 24.9086 9 24.8659 9 24.8232Z" fill="white"/>
</svg>
