<svg viewBox="0 0 40 40" version="1.1" xmlns="http://www.w3.org/2000/svg" preserveAspectRatio="none" class="SparkLine__Svg-sc-9wg5ja-0 cdfFYq"><path d="M 0,7.6608191885871335 C 3.0512801527318115e-18,7.610988002079216 9.04964384579746e-18,7.559455155754435 0,7.411663256047545 C 9.04964384579746e-18,7.263871356340655 -0.19999999999999998,6.935341227182396 0,6.921859690052685 C 0.19999999999999998,6.908378152922974 0.8,7.4542925790724475 1,7.344255570398991 C 1.2,7.234218561725534 1,6.650527287641789 1,6.371674646685402 C 1,6.092822005729015 0.8,5.961739307578614 1,5.949992365617057 C 1.2,5.938245423655499 1.7999999999999998,6.108334556188472 2,6.312939936877616 C 2.2,6.517545317566759 2,6.914064990246394 2,6.973019269062773 C 2,7.031973547879152 1.8,6.604275075974492 2,6.607711330959509 C 2.2,6.611147585944526 2.8,6.681244991948703 3,6.990200543987859 C 3.2,7.299156096027015 3,8.319087076451083 3,8.152489091155289 C 3,7.985891105859495 2.8,6.385792933940107 3,6.1572106175088885 C 3.2,5.92862830107767 3.8,6.963094749872844 4,7.009577508999197 C 4.2,7.05606026812555 4,6.660122453318779 4,6.389624413140654 C 4,6.119126372962528 3.8,5.973025154622071 4,5.657087308108569 C 4.2,5.341149461595066 4.8,5.005329641350381 5,4.80993518057314 C 5.2,4.614540719795898 5,4.656774818605303 5,4.680115004222362 C 5,4.703455189839421 4.8,4.8276763564702065 5,4.9266361086584345 C 5.2,5.025595860846662 5.8,5.00849143507461 6,5.1749137651635 C 6.2,5.341336095252389 6,5.691867039075074 6,5.7587477591028815 C 6,5.825628479130689 5.8,5.338745180950584 6,5.509317365302539 C 6.2,5.679889549654494 6.8,6.416664336553109 7,6.611608680862658 C 7.2,6.8065530251722075 7,6.658420793501916 7,6.484039086850285 C 7,6.309657380198654 6.8,6.236507964974559 7,5.739700147604502 C 7.2,5.242892330234445 7.8,4.1734924521666885 8,4 C 8.2,3.8265075478333115 7.8,4.700886232438486 8,4.87223788677106 C 8.2,5.043589541103635 8.8,4.758545054103984 9,4.856758271662872 C 9.2,4.95497148922176 9,5.277737931903531 9,5.3633039745655005 C 9,5.4488700172274696 8.8,5.157363165462402 9,5.2845884849727165 C 9.2,5.411813804483031 9.799999999999999,5.6203115723171555 10,5.999430572117072 C 10.2,6.378549571916989 10,6.574236177981207 10,7.180183483972301 C 10,7.786130789963395 9.8,8.551131039736644 10,9.029167102072542 C 10.2,9.50720316440844 10.8,9.746281505206891 11,9.570363795651787 C 11.2,9.394446086096682 11,8.394983923607194 11,8.149578554297015 C 11,7.904173184986837 10.8,8.04127342325695 11,8.343336949100895 C 11.2,8.64540047494484 11.8,9.329377477451168 12,9.659896183516736 C 12.2,9.990414889582304 12,10.21950376248795 12,9.995930479428738 C 12,9.772357196369526 11.8,8.730151953917082 12,8.54202976822068 C 12.2,8.353907582524277 12.8,8.779309785490671 13,9.055319550946727 C 13.2,9.331329316402783 13,8.872208547277813 13,9.922078595500956 C 13,10.9719486437241 12.8,13.054177016542658 13,14.304669792062445 C 13.2,15.555162567582231 13.8,15.962493812165114 14,16.174542473099887 C 14.2,16.38659113403466 14,15.43410469103243 14,15.364913096736313 C 14,15.295721502440195 13.8,15.81699408717064 14,15.828584501619293 C 14.2,15.840174916067946 14.8,15.82832133232244 15,15.42286516897958 C 15.2,15.01740900563672 15,14.027234526248469 15,13.80130368490499 C 15,13.575372843561512 14.8,14.059560488211188 15,14.29321096226219 C 15.2,14.526861436313192 15.8,14.893675574568997 16,14.96955605516 C 16.2,15.045436535751003 15.8,14.66316120130545 16,14.672613365217208 C 16.2,14.682065529128966 16.8,15.000313966728987 17,15.016816874718788 C 17.2,15.03331978270859 17,15.03544706785814 17,14.755127905166214 C 17,14.474808742474288 16.8,13.883752432529803 17,13.615221061259154 C 17.2,13.346689689988505 17.8,13.317675275011075 18,13.412471048812971 C 18.2,13.507266822614868 18,14.139180165894901 18,14.089199930268641 C 18,14.039219694642382 17.8,13.32778536216498 18,13.162569870681676 C 18.2,12.997354379198372 18.8,13.150420221477237 19,13.263122472852125 C 19.2,13.375824724227012 19,13.478822607780634 19,13.72608112755611 C 19,13.973339647331587 18.8,14.349353745589651 19,14.499415071729505 C 19.2,14.649476397869359 19.8,14.59671095385147 20,14.476387758255377 C 20.2,14.356064562659284 20,14.231728035286261 20,13.89779909374904 C 20,13.563870152211818 19.8,12.921824791003159 20,12.80674305056927 C 20.2,12.691661310135382 20.8,13.171528592161843 21,13.322390391579598 C 21.2,13.473252190997352 21,13.516543540328726 21,13.561052047658043 C 21,13.60556055498736 20.8,13.465335181317213 21,13.54493292822618 C 21.2,13.624530675135146 21.8,13.843323049301608 22,13.959040782202875 C 22.2,14.074758515104142 22,14.23281360863576 22,14.123521592732516 C 22,14.01422957682927 21.8,13.635298685531108 22,13.412580702686647 C 22.2,13.189862719842186 22.8,12.922625264281082 23,13.009931678510206 C 23.2,13.09723809273933 23,13.559670408849623 23,13.849112773832262 C 23,14.138555138814901 22.8,14.43601320196403 23,14.457143503423403 C 23.2,14.478273804882775 23.8,14.132502244987426 24,13.954764281129126 C 24.2,13.777026317270826 23.8,13.450707354567433 24,13.5684536841319 C 24.2,13.686200013696366 24.8,14.346382125612775 25,14.543495928951458 C 25.2,14.74060973229014 25,14.450860336461146 25,14.554022700825314 C 25,14.657185065189482 24.8,14.884859403124583 25,15.059307750772296 C 25.2,15.23375609842001 25.8,15.244907897373933 26,15.426264439063878 C 26.2,15.607620980753824 26,15.956079060554462 26,15.966090459222025 C 26,15.976101857889589 25.8,15.604528741515837 26,15.476321432401697 C 26.2,15.348114123287557 26.8,15.537585051630321 27,15.325053913651326 C 27.2,15.11252277567233 27,14.629519392858414 27,14.413665742506716 C 27,14.197812092155017 26.8,14.388993620927282 27,14.245785661892835 C 27.2,14.102577702858389 27.8,13.766707887756919 28,13.697625947334485 C 28.2,13.628544006912051 28,13.839539990659452 28,13.900375959780668 C 28,13.961211928901884 27.8,14.031993504366437 28,14.001805792940567 C 28.2,13.971618081514698 28.8,13.723537157686586 29,13.749437402651319 C 29.2,13.775337647616052 29,14.106207246077412 29,14.131307017764232 C 29,14.156406789451053 28.8,14.01778236233671 29,13.874936261085423 C 29.2,13.732090159834137 29.8,13.565175033308668 30,13.417076511507798 C 30.2,13.268977989706928 30,13.131143070483107 30,13.134443652081075 C 30,13.137744233679042 29.8,13.446266372683143 30,13.433579419497633 C 30.2,13.420892466312123 30.8,13.501356478823206 31,13.071008886153528 C 31.2,12.64066129348385 31,11.53359578474587 31,11.281841456149243 C 31,11.030087127552616 30.8,11.678327932624546 31,11.81223724317039 C 31.2,11.946146553716234 31.8,11.8762641400159 32,11.95138800887846 C 32.2,12.02651187774102 32,12.1066249978563 32,12.187856587483195 C 32,12.269088177110088 31.8,12.349661843494879 32,12.357545957012926 C 32.2,12.365430070530973 32.8,12.102644562241464 33,12.227277155073429 C 33.2,12.351909747905394 32.8,12.808749716457724 33,12.980708921172749 C 33.2,13.152668125887773 33.8,13.138182849173782 34,13.087073178648554 C 34.2,13.035963508123325 34,12.912361661704045 34,12.725160568546608 C 34,12.53795947538917 33.8,12.199732102003402 34,12.15106771286137 C 34.2,12.102403323719336 34.8,12.518770047494025 35,12.481838622836444 C 35.2,12.444907198178862 35,11.98948176459709 35,11.966410589573467 C 35,11.943339414549845 34.8,12.220741784201731 35,12.366482747718335 C 35.2,12.512223711234938 35.8,12.679007253111942 36,12.695115407156482 C 36.2,12.711223561201022 36,12.586064629775398 36,12.447023517941036 C 36,12.307982406106673 35.8,12.170509344665989 36,11.999909847984672 C 36.2,11.829310351303354 36.8,11.560965391617996 37,11.594026034534448 C 37.2,11.6270866774509 37,12.059945343827977 37,12.165213062566925 C 37,12.270480781305874 36.8,12.141637479724356 37,12.120364628229195 C 37.2,12.099091776734035 37.8,12.033134971711656 38,12.05884880509112 C 38.2,12.084562638470585 38,12.188086860617933 38,12.248933795126517 C 38,12.3097807296351 37.8,12.42708844370479 38,12.363083477634039 C 38.2,12.299078511563287 38.8,12.145979773122363 39,11.928908964772758 C 39.2,11.711838156423152 39,11.344212579502079 39,11.277729435886007 C 39,11.211246292269935 38.8,11.749877085204945 39,11.5964932466924 C 39.2,11.443109408179856 39.8,10.671365445174926 40,10.510810243323286 C 40.2,10.350255041471646 40,10.615617415792737 40,10.793717237434198 C 40,10.971817059075658 39.8,11.267959275740548 40,11.401309351530585 C 40.2,11.534659427320623 40.8,11.339311051348277 41,11.460467616384385 C 41.2,11.581624181420493 40.8,11.943350379937213 41,12.007092176711124 C 41.2,12.070833973485035 41.8,11.683492630075179 42,11.779176600253939 C 42.2,11.874860570432698 42,12.312697522675151 42,12.485512027604926 C 42,12.658326532534701 41.8,12.593268889276542 42,12.643249124902812 C 42.2,12.693229360529083 42.8,12.663677641570622 43,12.735413205736277 C 43.2,12.807148769901932 43,13.008089493432264 43,13.001926945731084 C 43,12.995764398029904 42.8,12.721070479058074 43,12.704600467230375 C 43.2,12.688130455402675 43.8,12.527586218938414 44,12.919576886592589 C 44.2,13.311567554246764 44,14.45059716716433 44,14.66455380550125 C 44,14.878510443838168 43.8,14.062652727449185 44,13.989360078277187 C 44.2,13.916067429105189 44.8,14.300316533277094 45,14.298090559641258 C 45.2,14.295864586005422 45,14.210948626222669 45,13.97823021009801 C 45,13.745511793973352 44.8,13.193031716791774 45,13.134498479017966 C 45.2,13.075965241244157 45.8,13.402196480848556 46,13.685564021228965 C 46.2,13.968931561609374 46,14.554921862589557 46,14.551336180920014 C 46,14.547750499250471 45.8,13.767146503251661 46,13.667635612881252 C 46.2,13.568124722510843 46.8,13.988844705070871 47,14.053781729067968 C 47.2,14.118718753065064 47,14.172131154937711 47,13.99232073286673 C 47,13.81251031079575 46.8,13.473756598816298 47,13.154729618713064 C 47.2,12.835702638609831 47.8,12.71660756639907 48,12.397185832350564 C 48.2,12.077764098302058 48,11.643797927800692 48,11.557620948470538 C 48,11.471443969140383 47.8,12.079902348838909 48,11.966300935699792 C 48.2,11.852699522560675 48.8,11.194633730406427 49,10.98961388277495 C 49.2,10.784594035143474 48.8,10.827797661375934 49,10.941201697542414 C 49.2,11.054605733708895 49.8,11.38680214404185 50,11.556634063607357 C 50.2,11.726465983172863 50,11.763890850262046 50,11.790361295369951 C 50,11.816831740477857 49.8,11.802171017566 50,11.68898628914689 C 50.2,11.575801560727779 50.8,11.249789628870706 51,11.224437653274402 C 51.2,11.199085677678097 51,11.400837839873708 51,11.562226411165362 C 51,11.723614982457017 50.8,12.061524359609065 51,12.031380509732676 C 51.2,12.001236659856287 51.8,11.675915547403454 52,11.411507161783419 C 52.2,11.147098776163384 52,11.030438019948416 52,10.709338581632503 C 52,10.38823914331659 51.8,10.048652061897135 52,9.806009970203853 C 52.2,9.56336787851057 52.8,9.443329782986075 53,9.49612812316609 C 53.2,9.548926463346104 53,9.914655028252385 53,10.070001671103924 C 53,10.225348313955463 52.8,10.262970558017269 53,10.27286133742378 C 53.2,10.282752116830292 53.8,10.033826858174764 54,10.11945556813648 C 54.2,10.205084278098196 54,10.572326066461363 54,10.701004887232358 C 54,10.829683708003353 53.8,10.752958892584946 54,10.762849671991457 C 54.2,10.772740451397969 54.8,10.880453451520147 55,10.750458784264914 C 55.2,10.620464117009682 55,10.231499896269254 55,10.112876335715292 C 55,9.99425277516133 54.8,10.108983623199396 55,10.157340981495107 C 55.2,10.205698339790818 55.8,10.245908415271664 56,10.354663127193849 C 56.2,10.463417839116033 56,10.470424721644575 56,10.701114541106033 C 56,10.931804360567492 55.8,11.193032783850622 56,11.508112224501144 C 56.2,11.823191665151665 56.8,12.21081810863311 57,12.276511744358636 C 57.2,12.342205380084163 57,11.95956818785545 57,11.836580403128778 C 57,11.713592618402107 56.8,11.75893449517144 57,11.661572820725283 C 57.2,11.564211146279126 57.8,11.368939528018386 58,11.349772030897995 C 58.2,11.330604533777604 57.8,11.393162068715665 58,11.565735335123334 C 58.2,11.738308601531003 58.8,12.017257090801888 59,12.212638362936337 C 59.2,12.408019635070787 59,12.54971437064836 59,12.54264169579558 C 59,12.535569020942802 58.8,12.363686573939336 59,12.177274988672444 C 59.2,11.990863403405552 59.8,11.67126622315918 60,11.610583769461119 C 60.2,11.549901315763059 60,11.355046382222278 60,11.87386272018214 C 60,12.392679058142003 59.8,13.778254440656093 60,14.204665459260426 C 60.2,14.631076477864758 60.8,14.006400290248015 61,14.005917813203803 C 61.2,14.005435336159591 61,14.180519676274715 61,14.202253074039364 C 61,14.223986471804013 60.8,14.206036132681522 61,14.11458480202705 C 61.2,14.023133471372578 61.8,13.979611848906442 62,13.744996420767006 C 62.2,13.510380992627569 62,13.131165001257877 62,12.941507661329865 C 62,12.751850321401854 61.8,13.065701638667074 62,12.796709721126948 C 62.2,12.527717803586823 62.8,11.915125472850349 63,11.596548073629236 C 63.2,11.277970674408124 63,11.034835140283262 63,11.203822725021388 C 63,11.372810309759513 62.8,12.207374976999386 63,12.441485997319866 C 63.2,12.675597017640346 63.8,12.23175103311988 64,12.374377826623784 C 64.2,12.517004620127688 64,13.027158302066315 64,13.154619964839391 C 64,13.282081627612467 63.8,13.06612928877446 64,13.011686140489163 C 64.2,12.957242992203865 64.8,13.014350729619752 65,12.882404223412903 C 65.2,12.750457717206055 65,12.405223461291778 65,12.351953609454918 C 65,12.29868375761806 64.8,12.477178333204781 65,12.61605496422861 C 65.2,12.754931595252438 65.8,12.86158095279983 66,13.046336764574061 C 66.2,13.231092576348292 65.8,13.421901281950028 66,13.539834023099763 C 66.2,13.657766764249498 66.8,13.452121889537999 67,13.636000470322735 C 67.2,13.81987905110747 67,14.136000203558021 67,14.45922692702344 C 67,14.78245365048886 66.8,15.144870668409785 67,15.252134087649832 C 67.2,15.359397506889879 67.8,14.957154202046056 68,14.995544023223673 C 68.2,15.03393384440129 68,15.341644544740078 68,15.444083193537915 C 68,15.546521842335753 67.8,15.145693072462455 68,15.507737267212866 C 68.2,15.869781461963276 68.8,17.000740549777525 69,17.25430416728997 C 69.2,17.507867784802414 69,17.113771762773446 69,16.775555354775086 C 69,16.437338946776727 68.8,15.79710287448391 69,15.56322212729818 C 69.2,15.329341380112451 69.8,15.421384841684844 70,15.606151618846441 C 70.2,15.790918396008038 70,16.03311090681919 70,16.48705601310617 C 70,16.94100111939315 69.8,17.372982554780744 70,17.875877150281347 C 70.2,18.37877174578195 70.8,18.701066411321047 71,19.001528990609177 C 71.2,19.301991569897307 71,19.533196762565105 71,19.378190046722 C 71,19.223183330878896 70.8,18.526004001980713 71,18.22649541139366 C 71.2,17.926986820806608 71.8,17.725618447168902 72,17.88064709378674 C 72.2,18.03567574040458 72,18.756364859821094 72,19.001638644482853 C 72,19.24691242914461 71.8,18.611172165672965 72,19.107016017095532 C 72.2,19.6028598685181 72.8,20.743983870423033 73,21.480857901595694 C 73.2,22.217731932768356 73,22.319106938991474 73,22.79138617295883 C 73,23.263665406926187 72.8,23.541813422919095 73,23.842254071432478 C 73.2,24.14269471994586 73.8,24.640062760212693 74,24.29358941552575 C 74.2,23.94711607083881 73.8,22.687609746901977 74,22.10988734799777 C 74.2,21.532164949093563 74.8,21.433092674217903 75,21.404977421004713 C 75.2,21.376862167791522 75,22.08226553721619 75,21.96931108193182 C 75,21.85635662664745 74.8,21.094426685337428 75,20.840205144582857 C 75.2,20.585983603828286 75.8,20.42873994896199 76,20.698203378158972 C 76.2,20.967666807355954 76,21.42416684889984 76,22.187522290567763 C 76,22.950877732235686 75.8,24.29210908823096 76,24.514980586498588 C 76.2,24.737852084766217 76.8,23.564511774772214 77,23.301879781905903 C 77.2,23.039247789039592 77,23.299171331225843 77,23.20182062216704 C 77,23.10446991310824 76.8,22.566058427920595 77,22.8151262366119 C 77.2,23.064194045303203 77.8,24.265550920024136 78,24.447159665623566 C 78.2,24.628768411222996 78,23.903046179004235 78,23.72316996460905 C 78,23.543293750213863 77.8,23.23124075647708 78,23.54777859364764 C 78.2,23.864316430818196 78.8,24.909295916274935 79,25.305859150461835 C 79.2,25.702422384648735 79,25.360686087305037 79,25.53059476458213 C 79,25.700503441859222 78.8,25.661521489763718 79,26.15540253684729 C 79.2,26.649283583930863 79.8,28.179349875801492 80,28 C 80.2,27.820650124198508 80,25.967433866574023 80,25.258653157839827 C 80,24.54987244910563 79.8,24.950054261124187 80,24.45609645632903 C 80.2,23.96213865153387 80.8,23.087144601065813 81,22.78886413386404 C 81.2,22.490583666662264 81,22.764126219960342 81,22.96469412032015 C 81,23.165262020679958 80.8,23.730363258722882 81,23.79170363566307 C 81.2,23.853044012603256 81.8,23.179878882042402 82,23.271396005021078 C 82.2,23.362913127999754 82,24.34813125229738 82,24.24928925055645 C 82,24.15044724881552 81.8,22.942269903151328 82,22.777185996316433 C 82.2,22.61210208948154 82.8,23.359733165662806 83,23.42386971638198 C 83.2,23.488006267101152 82.8,23.368966021827195 83,23.097868749912298 C 83.2,22.8267714779974 83.8,22.29553135614888 84,22.068383356807495 C 84.2,21.841235357466108 84,21.886971988180704 84,21.962128753205366 C 84,22.03728551823003 83.8,22.34170660235824 84,22.444167181930812 C 84.2,22.546627761503384 84.8,22.60970066964778 85,22.47443165106823 C 85.2,22.33916263248868 85,21.870008533921425 85,21.76782208903306 C 85,21.665635644144697 84.8,21.923256454983502 85,21.963499426626406 C 85.2,22.00374239826931 85.8,21.8032841517832 86,21.969036947247574 C 86.2,22.13478974271195 86,22.674188112762756 86,22.79226340394828 C 86,22.910338695133802 85.8,22.61201436638256 86,22.559413403175192 C 86.2,22.506812439967824 86.8,22.583109605278835 87,22.529258587911446 C 87.2,22.475407570544057 87,22.49123062451701 87,22.290158316338246 C 87,22.089086008159484 86.8,21.966975454422297 87,21.52389704701763 C 87.2,21.080818639612964 87.8,20.381994502609484 88,20.074766279314908 C 88.2,19.76753805602033 88,19.998578767877603 88,19.98775593054475 C 88,19.976933093211898 87.8,19.920932859920224 88,20.020652092650636 C 88.2,20.120371325381047 88.8,20.391479562683333 89,20.486352094196814 C 89.2,20.581224625710295 89,20.386632861466392 89,20.49501475021804 C 89,20.603396638969688 88.8,20.805773828245332 89,21.028261537955053 C 89.2,21.250749247664775 89.8,21.592562302720033 90,21.607453298766654 C 90.2,21.622344294813274 90,21.250497043755328 90,21.102716518188156 C 90,20.954935992620985 89.8,20.7679542072109 90,20.868550670930805 C 90.2,20.96914713465071 90.8,21.51146229774159 91,21.605698836787695 C 91.2,21.6999353758338 90.8,21.478752547220946 91,21.33973336616132 C 91.2,21.200714185101692 91.8,21.02346966367498 92,20.91060293148956 C 92.2,20.79773619930414 92,20.71859899866466 92,20.775399705234214 C 92,20.83220041180377 91.8,21.138189546325666 92,21.194606464337326 C 92.2,21.251023382348986 92.8,21.23257960079497 93,21.05748429529251 C 93.2,20.88238898979005 93,20.535290618023055 93,20.319129936825036 C 93,20.102969255627016 92.8,19.942359226838562 93,19.97668088930241 C 93.2,20.01100255176626 93.8,20.512767712367893 94,20.49073824914429 C 94.2,20.468708785920686 94,19.865371242123324 94,19.866533573184395 C 94,19.867695904245465 93.8,19.999741098938628 94,20.496549904449644 C 94.2,20.99335870996066 94.8,21.761111271963443 95,22.35057760073947 C 95.2,22.940043929515497 95,23.265595315103056 95,23.443881548329784 C 95,23.622167781556513 94.8,23.484486377755868 95,23.24200876687311 C 95.2,22.99953115599035 95.8,22.501998634912983 96,22.231493493915984 C 96.2,21.960988352918985 96,22.241811923429903 96,21.889483061888114 C 96,21.537154200346325 95.8,21.036145651473124 96,20.469849186207036 C 96.2,19.903552720940947 96.8,19.280466514492662 97,19.058000735557673 C 97.2,18.835534956622684 97,19.003272487200775 97,19.35752029153209 C 97,19.711768095863405 96.8,20.6106776561825 97,20.829239757214246 C 97.2,21.047801858245993 97.8,20.674507176055318 98,20.45033079669082 C 98.2,20.226154417326324 98,19.79169480439342 98,19.708357860391754 C 98,19.62502091639009 97.8,19.900778477936672 98,20.033646076682498 C 98.2,20.166513675428323 98.8,20.359712835476408 99,20.37269585412088 C 99.2,20.385678872765354 99,20.15338810674807 99,20.09856116990487" stroke-width="1.7" class="SparkLine__Path-sc-9wg5ja-1 csnuAl"></path></svg>