<svg width="680" height="956" viewBox="0 0 680 956" fill="none" xmlns="http://www.w3.org/2000/svg"
    class="HeroVariant__StyledMobileImage-sc-1o7093z-6 kGJGpi">
    <circle cx="340" cy="428" r="340" fill="#F1F5FE"></circle>
    <g filter="url(#prefix__filter0_dd)">
        <path
            d="M481 10H198c-32.032 0-58 25.968-58 58v720c0 32.032 25.968 58 58 58h283c32.032 0 58-25.968 58-58V68c0-32.032-25.968-58-58-58z"
            fill="url(#prefix__paint0_linear)"></path>
        <path
            d="M472.489 22H206.511C176.406 22 152 47.222 152 78.335v699.33C152 808.778 176.406 834 206.511 834h265.978C502.594 834 527 808.778 527 777.665V78.335C527 47.222 502.594 22 472.489 22z"
            fill="url(#prefix__img1)"></path>
        <g filter="url(#prefix__filter1_f)">
            <path d="M213.5 15.5c-38.883 0-67.5 23.943-67.5 61.343V783.5c0 20.5 11.5 57 65.5 57"
                stroke="url(#prefix__paint1_radial)"></path>
        </g>
        <g filter="url(#prefix__filter2_f)">
            <path d="M465.5 15c38.883 0 67.5 23.943 67.5 61.343V783c0 20.5-11.5 57-65.5 57"
                stroke="url(#prefix__paint2_radial)"></path>
        </g>
    </g>
    <defs>
        <filter id="prefix__filter0_dd" x="48" y="0" width="519" height="956" filterUnits="userSpaceOnUse"
            color-interpolation-filters="sRGB">
            <feFlood flood-opacity="0" result="BackgroundImageFix"></feFlood>
            <feColorMatrix in="SourceAlpha" values="0 0 0 0 0 0 0 0 0 0 0 0 0 0 0 0 0 0 127 0"></feColorMatrix>
            <feOffset dx="-32" dy="50"></feOffset>
            <feGaussianBlur stdDeviation="30"></feGaussianBlur>
            <feColorMatrix values="0 0 0 0 0.321569 0 0 0 0 0.321569 0 0 0 0 0.321569 0 0 0 0.25 0"></feColorMatrix>
            <feBlend in2="BackgroundImageFix" result="effect1_dropShadow"></feBlend>
            <feColorMatrix in="SourceAlpha" values="0 0 0 0 0 0 0 0 0 0 0 0 0 0 0 0 0 0 127 0"></feColorMatrix>
            <feOffset dy="15"></feOffset>
            <feGaussianBlur stdDeviation="7.5"></feGaussianBlur>
            <feColorMatrix values="0 0 0 0 0.320833 0 0 0 0 0.320833 0 0 0 0 0.320833 0 0 0 0.1 0"></feColorMatrix>
            <feBlend in2="effect1_dropShadow" result="effect2_dropShadow"></feBlend>
            <feBlend in="SourceGraphic" in2="effect2_dropShadow" result="shape"></feBlend>
        </filter>
        <filter id="prefix__filter1_f" x="143.5" y="13" width="72" height="830" filterUnits="userSpaceOnUse"
            color-interpolation-filters="sRGB">
            <feFlood flood-opacity="0" result="BackgroundImageFix"></feFlood>
            <feBlend in="SourceGraphic" in2="BackgroundImageFix" result="shape"></feBlend>
            <feGaussianBlur stdDeviation="1" result="effect1_foregroundBlur"></feGaussianBlur>
        </filter>
        <filter id="prefix__filter2_f" x="463.5" y="12.5" width="72" height="830" filterUnits="userSpaceOnUse"
            color-interpolation-filters="sRGB">
            <feFlood flood-opacity="0" result="BackgroundImageFix"></feFlood>
            <feBlend in="SourceGraphic" in2="BackgroundImageFix" result="shape"></feBlend>
            <feGaussianBlur stdDeviation="1" result="effect1_foregroundBlur"></feGaussianBlur>
        </filter>
        <radialGradient id="prefix__paint1_radial" cx="0" cy="0" r="1" gradientUnits="userSpaceOnUse"
            gradientTransform="matrix(286.75008 212.24974 -632.54832 854.57482 179.75 390.25)">
            <stop stop-opacity="0.2"></stop>
            <stop offset="1" stop-opacity="0"></stop>
        </radialGradient>
        <radialGradient id="prefix__paint2_radial" cx="0" cy="0" r="1" gradientUnits="userSpaceOnUse"
            gradientTransform="matrix(0 756.5 -2254.52 0 499 131)">
            <stop stop-opacity="0"></stop>
            <stop offset="0.453" stop-opacity="0.2"></stop>
            <stop offset="1" stop-opacity="0"></stop>
        </radialGradient>
        <linearGradient id="prefix__paint0_linear" x1="539" y1="654" x2="-169.5" y2="799.5"
            gradientUnits="userSpaceOnUse">
            <stop stop-color="#F2F2F3"></stop>
            <stop offset="0.64" stop-color="#CACED2"></stop>
        </linearGradient>
        <pattern id="prefix__img1" patternUnits="objectBoundingBox" width="1" height="1" viewBox="0 0 375 812">
            <svg width="375" height="812" viewBox="0 0 375 812" fill="none" xmlns="http://www.w3.org/2000/svg">
                <g clip-path="url(#clip0)">
                    <path fill="#fff" d="M0 0h375v812H0z" />
                    <path
                        d="M78.224 562.144c2.56 0 4.384-1.296 4.784-3.936h-1.296c-.288 1.856-1.584 2.8-3.456 2.8-2.464 0-3.936-1.76-3.936-4.672v-.128c0-2.88 1.584-4.72 3.952-4.72 1.952 0 2.96.896 3.248 2.64h1.376c-.24-2.48-2.256-3.744-4.64-3.744-3.104 0-5.376 2.448-5.376 5.84v.128c0 3.52 2.032 5.792 5.344 5.792zm9.06 0c1.232 0 1.984-.416 2.608-1.2V562h1.328v-5.52c0-2.336-1.456-2.992-3.056-2.992-1.616 0-3.136.704-3.312 2.608h1.328c.128-1.024.768-1.504 1.92-1.504 1.28 0 1.792.56 1.792 1.888v.608h-1.2c-2.144 0-4.192.656-4.192 2.592 0 1.712 1.232 2.464 2.784 2.464zm.128-1.056c-1.168 0-1.584-.544-1.584-1.408 0-1.232 1.232-1.648 2.912-1.648h1.152v1.04c0 1.296-1.072 2.016-2.48 2.016zm9.008 1.056c2.032 0 3.072-1.024 3.072-2.544 0-1.776-1.216-2.16-2.944-2.48-1.536-.272-1.952-.576-1.952-1.328 0-.72.624-1.2 1.584-1.2 1.056 0 1.568.4 1.76 1.312h1.28c-.224-1.808-1.52-2.416-3.024-2.416-1.312 0-2.832.8-2.832 2.352 0 1.456.736 2.064 2.912 2.464 1.296.24 1.952.528 1.952 1.408 0 .896-.56 1.328-1.824 1.328-1.344 0-1.872-.624-1.968-1.616H93.14c.08 1.712 1.28 2.72 3.28 2.72zm5.096-.144h1.328v-5.072c0-1.504 1.104-2.288 2.336-2.288 1.344 0 1.968.656 1.968 2.128V562h1.328v-5.136c0-2.432-1.216-3.376-2.944-3.376-1.376 0-2.304.688-2.688 1.472v-5.328h-1.328V562zm15.957 2.368h1.328c-1.44-1.792-2.592-4.064-2.592-7.36 0-3.296 1.152-5.584 2.592-7.376h-1.328c-1.472 1.728-2.656 4.192-2.656 7.376s1.184 5.632 2.656 7.36zm7.108-2.224c2.944 0 4.336-1.712 4.336-4.496v-7.088h-1.392v6.896c0 2.8-1.088 3.536-2.912 3.536-1.904 0-2.752-.928-2.752-3.328v-7.104h-1.392v7.264c0 2.784 1.488 4.32 4.112 4.32zm10.821 0c2.272 0 3.952-1.456 3.952-3.376 0-2.16-1.344-2.928-3.888-3.328-2.336-.352-2.752-.928-2.752-2.048 0-1.072.816-1.856 2.384-1.856 1.584 0 2.416.592 2.688 2.032h1.248c-.224-2.032-1.648-3.152-3.936-3.152-2.16 0-3.68 1.344-3.68 3.104 0 2.032 1.424 2.784 3.824 3.152 2.176.352 2.768.896 2.768 2.192 0 1.296-1.136 2.16-2.608 2.16-2.304 0-2.848-1.152-3.024-2.512h-1.344c.208 1.952 1.312 3.632 4.368 3.632zm6.335-.144h2.992c4 0 5.824-2.512 5.824-5.68v-.144c0-3.184-1.856-5.616-5.792-5.616h-3.024V562zm1.392-1.136v-9.184h1.552c3.152 0 4.432 1.856 4.432 4.496v.128c0 2.8-1.472 4.56-4.416 4.56h-1.568zm8.629 3.456h1.328c1.472-1.728 2.656-4.192 2.656-7.376s-1.184-5.632-2.656-7.36h-1.328c1.44 1.792 2.592 4.064 2.592 7.36 0 3.296-1.152 5.584-2.592 7.376zM302.076 564.16h.944v-2.032c2.08-.128 3.568-1.536 3.568-3.36 0-2.064-1.216-2.816-3.568-3.232v-4c1.184.16 1.84.8 2.08 2.032h1.248c-.208-1.856-1.408-2.944-3.328-3.12v-1.456h-.944v1.44c-2 .128-3.376 1.424-3.376 3.088 0 1.92 1.264 2.672 3.376 3.072v4.448c-1.952-.176-2.336-1.28-2.496-2.528h-1.344c.192 1.84 1.104 3.424 3.84 3.616v2.032zm-2.112-10.768c0-.992.768-1.76 2.112-1.872v3.856c-1.776-.368-2.112-.976-2.112-1.984zm5.296 5.472c0 1.184-.96 2.048-2.24 2.176v-4.288c1.744.368 2.24.928 2.24 2.112zm6.783 3.28c2.176 0 3.92-1.472 3.92-3.888 0-2.336-1.504-3.792-3.552-3.792-1.088 0-1.872.352-2.336.784v-3.488h5.28v-1.2h-6.432v6.128h.512c.608-.688 1.376-1.104 2.704-1.104 1.456 0 2.4 1.056 2.4 2.672 0 1.728-.96 2.768-2.512 2.768-1.744 0-2.24-.864-2.464-2.112h-1.328c.16 1.872 1.344 3.232 3.808 3.232zm9.378-.016c2.736 0 4.304-2.096 4.304-5.888v-.72c0-3.296-1.408-5.12-4.112-5.12-2.416 0-3.952 1.536-3.952 3.824 0 2.16 1.536 3.744 3.76 3.744 1.312 0 2.416-.592 2.96-1.52-.032 3.04-1.104 4.544-2.928 4.544-1.472 0-2.112-.688-2.368-1.808h-1.344c.304 1.84 1.568 2.944 3.68 2.944zm.208-5.248c-1.552 0-2.544-1.072-2.544-2.72 0-1.616 1.024-2.672 2.528-2.672 1.536 0 2.64 1.04 2.64 2.912 0 1.488-1.088 2.48-2.624 2.48zm6.455 5.2a1.02 1.02 0 001.024-1.024 1.02 1.02 0 00-1.024-1.024 1.02 1.02 0 00-1.024 1.024 1.02 1.02 0 001.024 1.024zm6.967.064c2.816 0 4.432-2.24 4.432-5.568v-.64c0-3.264-1.648-5.52-4.464-5.52-2.8 0-4.512 2.176-4.512 5.552v.64c0 3.328 1.808 5.536 4.544 5.536zm0-1.152c-1.904 0-3.12-1.504-3.12-4.4v-.64c0-2.816 1.152-4.416 3.088-4.416 1.936 0 3.056 1.728 3.056 4.384v.64c0 2.896-1.024 4.432-3.024 4.432zm10.094 1.152c1.936 0 3.936-1.136 3.936-3.424 0-1.472-.864-2.464-2.192-2.944 1.056-.464 1.76-1.264 1.76-2.416 0-1.792-1.728-2.944-3.504-2.944-1.76 0-3.52 1.12-3.52 2.976 0 1.12.64 1.984 1.728 2.4-1.216.432-2.16 1.424-2.16 2.96 0 2.272 2.08 3.392 3.952 3.392zm.048-6.848c-1.168 0-2.16-.688-2.16-1.888 0-1.184.928-1.904 2.112-1.904 1.184 0 2.096.768 2.096 1.872 0 1.216-.832 1.92-2.048 1.92zm-.048 5.712c-1.328 0-2.528-.8-2.528-2.304 0-1.52 1.2-2.304 2.56-2.304s2.48.768 2.48 2.272c0 1.52-1.104 2.336-2.512 2.336z"
                        fill="#071422" />
                    <path
                        d="M40 541c-8.824 0-16 7.176-16 16s7.176 16 16 16 16-7.176 16-16-7.176-16-16-16zm0 30.061c-7.758 0-14.06-6.303-14.06-14.061s6.302-14.061 14.06-14.061c7.758 0 14.06 6.303 14.06 14.061S47.759 571.061 40 571.061z"
                        fill="#1652F0" />
                    <path
                        d="M40.29 555.914c-1.968-.281-2.346-.747-2.346-1.668 0-.873.67-1.493 1.95-1.493 1.163 0 1.832.407 2.104 1.338a.487.487 0 00.465.359h1.018a.456.456 0 00.446-.543c-.32-1.474-1.319-2.366-2.88-2.648v-1.532a.48.48 0 00-.485-.485h-.97a.48.48 0 00-.484.485v1.503c-1.92.272-3.161 1.552-3.161 3.191 0 2.123 1.28 2.947 3.995 3.316 1.842.301 2.366.698 2.366 1.745 0 1.048-.892 1.746-2.143 1.746-1.697 0-2.25-.737-2.453-1.697a.497.497 0 00-.476-.398h-1.115a.45.45 0 00-.446.524c.281 1.61 1.319 2.802 3.433 3.084v1.532a.48.48 0 00.485.485h.97a.48.48 0 00.484-.485v-1.532c2.008-.32 3.278-1.717 3.278-3.433.01-2.269-1.377-3.026-4.034-3.394z"
                        fill="#1652F0" />
                    <path
                        d="M77.456 626.144c2.944 0 4.336-1.712 4.336-4.496v-7.088H80.4v6.896c0 2.8-1.088 3.536-2.912 3.536-1.904 0-2.752-.928-2.752-3.328v-7.104h-1.392v7.264c0 2.784 1.488 4.32 4.112 4.32zm10.82 0c2.273 0 3.953-1.456 3.953-3.376 0-2.16-1.344-2.928-3.888-3.328-2.336-.352-2.752-.928-2.752-2.048 0-1.072.816-1.856 2.384-1.856 1.584 0 2.416.592 2.688 2.032h1.248c-.224-2.032-1.648-3.152-3.936-3.152-2.16 0-3.68 1.344-3.68 3.104 0 2.032 1.424 2.784 3.824 3.152 2.176.352 2.768.896 2.768 2.192 0 1.296-1.136 2.16-2.608 2.16-2.304 0-2.848-1.152-3.024-2.512h-1.344c.208 1.952 1.312 3.632 4.368 3.632zm6.336-.144h2.992c4 0 5.824-2.512 5.824-5.68v-.144c0-3.184-1.856-5.616-5.792-5.616h-3.024V626zm1.392-1.136v-9.184h1.552c3.152 0 4.432 1.856 4.432 4.496v.128c0 2.8-1.472 4.56-4.416 4.56h-1.568zm18.767 1.28c2.56 0 4.384-1.296 4.784-3.936h-1.296c-.288 1.856-1.584 2.8-3.456 2.8-2.464 0-3.936-1.76-3.936-4.672v-.128c0-2.88 1.584-4.72 3.952-4.72 1.952 0 2.96.896 3.248 2.64h1.376c-.24-2.48-2.256-3.744-4.64-3.744-3.104 0-5.376 2.448-5.376 5.84v.128c0 3.52 2.032 5.792 5.344 5.792zm10.279 0c2.384 0 4.128-1.744 4.128-4.272v-.128c0-2.512-1.744-4.256-4.112-4.256-2.368 0-4.112 1.76-4.112 4.272v.128c0 2.448 1.712 4.256 4.096 4.256zm.016-1.104c-1.696 0-2.736-1.248-2.736-3.152v-.128c0-1.92 1.056-3.168 2.736-3.168 1.664 0 2.736 1.248 2.736 3.184v.112c0 1.888-1.056 3.152-2.736 3.152zm6.841-9.152c.48 0 .88-.4.88-.88s-.4-.88-.88-.88-.88.4-.88.88.4.88.88.88zm-.64 10.112h1.328v-8.368h-1.328V626zm4.046 0h1.328v-5.072c0-1.504 1.104-2.288 2.336-2.288 1.344 0 1.968.656 1.968 2.128V626h1.328v-5.136c0-2.432-1.216-3.376-2.944-3.376-1.376 0-2.304.688-2.688 1.472v-1.328h-1.328V626z"
                        fill="#071422" />
                    <path
                        d="M74.509 645h1.131v-9.295h-1.053l-2.158 1.56v1.053l2.08-1.495V645zm4.263.065a.83.83 0 00.831-.832.83.83 0 00-.831-.832.83.83 0 00-.833.832.83.83 0 00.833.832zm2.082-.065h6.227v-.923h-4.485l2.561-2.496c1.144-1.118 1.872-2.236 1.872-3.38 0-1.599-1.092-2.613-2.808-2.613-1.768 0-2.873 1.157-3.016 2.977h1.053c.182-1.456.884-2.067 1.963-2.067 1.053 0 1.664.624 1.664 1.664 0 .949-.494 1.794-1.339 2.691l-3.692 3.887v.26zm10.605.117c1.768 0 3.185-1.196 3.185-3.159 0-1.898-1.222-3.081-2.886-3.081-.884 0-1.521.286-1.898.637v-2.834h4.29v-.975h-5.226v4.979h.416c.494-.559 1.118-.897 2.197-.897 1.183 0 1.95.858 1.95 2.171 0 1.404-.78 2.249-2.041 2.249-1.417 0-1.82-.702-2.002-1.716h-1.08c.13 1.521 1.093 2.626 3.095 2.626zm6.157-5.096c1.118 0 2.132-.91 2.132-2.197 0-1.261-.975-2.197-2.132-2.197-1.131 0-2.132.936-2.132 2.223a2.158 2.158 0 002.132 2.171zM96.797 645h.988l5.681-9.295h-.988L96.797 645zm.819-5.824c-.689 0-1.144-.455-1.144-1.339 0-.884.455-1.365 1.144-1.365.702 0 1.144.52 1.144 1.352 0 .871-.442 1.352-1.144 1.352zm5.044 5.928c1.118 0 2.132-.91 2.132-2.197 0-1.261-.975-2.197-2.132-2.197-1.131 0-2.132.936-2.132 2.223a2.158 2.158 0 002.132 2.171zm0-.845c-.689 0-1.144-.455-1.144-1.339 0-.884.455-1.365 1.144-1.365.702 0 1.144.52 1.144 1.352 0 .871-.442 1.352-1.144 1.352zm6.485.741h1.066l.897-2.678h3.835l.91 2.678h1.118l-3.146-9.295h-1.482L109.145 645zm3.887-8.359l1.612 4.784h-3.224l1.612-4.784zm5.575 8.359h1.131v-3.783h1.508c1.768 0 3.25-.767 3.25-2.743v-.052c0-1.937-1.469-2.717-3.25-2.717h-2.639V645zm1.131-4.68v-3.705h1.586c1.261 0 2.041.494 2.041 1.807v.052c0 1.196-.715 1.846-2.041 1.846h-1.586zm8.595 4.68h1.131v-4.043l2.938-5.252h-1.131l-2.34 4.316-2.431-4.316h-1.274l3.107 5.239V645z"
                        fill="#587088" />
                    <path
                        d="M293.498 630.16h.944v-2.032c2.08-.128 3.568-1.536 3.568-3.36 0-2.064-1.216-2.816-3.568-3.232v-4c1.184.16 1.84.8 2.08 2.032h1.248c-.208-1.856-1.408-2.944-3.328-3.12v-1.456h-.944v1.44c-2 .128-3.376 1.424-3.376 3.088 0 1.92 1.264 2.672 3.376 3.072v4.448c-1.952-.176-2.336-1.28-2.496-2.528h-1.344c.192 1.84 1.104 3.424 3.84 3.616v2.032zm-2.112-10.768c0-.992.768-1.76 2.112-1.872v3.856c-1.776-.368-2.112-.976-2.112-1.984zm5.296 5.472c0 1.184-.96 2.048-2.24 2.176v-4.288c1.744.368 2.24.928 2.24 2.112zm8.483 3.136h1.36v-2.4h1.584v-1.136h-1.584v-7.904h-1.856l-5.232 8.592v.448h5.728v2.4zm-3.968-3.536l3.968-6.848v6.848h-3.968zm12.131 3.68c2.368 0 4.064-1.248 4.064-3.328 0-1.584-.864-2.528-2.208-2.88 1.04-.432 1.808-1.2 1.808-2.496 0-1.584-1.264-3.024-3.44-3.024s-3.664 1.488-3.744 3.296h1.216c.144-1.296 1.104-2.16 2.528-2.16 1.392 0 2.08.832 2.08 1.92 0 1.248-.656 1.952-2.144 1.952h-.8v1.168h.864c1.616 0 2.416.752 2.416 2.224 0 1.344-.816 2.208-2.608 2.208-1.808 0-2.624-1.04-2.752-2.4h-1.28c.08 2 1.568 3.52 4 3.52zm9.656-.016c2.736 0 4.304-2.096 4.304-5.888v-.72c0-3.296-1.408-5.12-4.112-5.12-2.416 0-3.952 1.536-3.952 3.824 0 2.16 1.536 3.744 3.76 3.744 1.312 0 2.416-.592 2.96-1.52-.032 3.04-1.104 4.544-2.928 4.544-1.472 0-2.112-.688-2.368-1.808h-1.344c.304 1.84 1.568 2.944 3.68 2.944zm.208-5.248c-1.552 0-2.544-1.072-2.544-2.72 0-1.616 1.024-2.672 2.528-2.672 1.536 0 2.64 1.04 2.64 2.912 0 1.488-1.088 2.48-2.624 2.48zm6.455 5.2a1.02 1.02 0 001.024-1.024 1.02 1.02 0 00-1.024-1.024 1.02 1.02 0 00-1.024 1.024 1.02 1.02 0 001.024 1.024zm7.971-.08h1.36v-2.4h1.584v-1.136h-1.584v-7.904h-1.856l-5.232 8.592v.448h5.728v2.4zm-3.968-3.536l3.968-6.848v6.848h-3.968zm7.795 3.536h7.664v-1.136h-5.52l3.152-3.072c1.408-1.376 2.304-2.752 2.304-4.16 0-1.968-1.344-3.216-3.456-3.216-2.176 0-3.536 1.424-3.712 3.664h1.296c.224-1.792 1.088-2.544 2.416-2.544 1.296 0 2.048.768 2.048 2.048 0 1.168-.608 2.208-1.648 3.312l-4.544 4.784v.32z"
                        fill="#071422" />
                    <path d="M40 645c8.837 0 16-7.163 16-16s-7.163-16-16-16-16 7.163-16 16 7.163 16 16 16z"
                        fill="#ECB244" />
                    <path
                        d="M39.096 632.846h6.297v3.35h-3.875c.064.958.097 1.847.161 2.804h-3.261v-2.77h-3.876c0-1.093-.129-2.187.065-3.213.097-.547.678-1.026 1.033-1.504a461.04 461.04 0 013.714-4.581c.485-.582.969-1.129 1.518-1.778h-6.04v-3.35h3.586V619h3.132v2.735h3.908c0 1.128.129 2.222-.065 3.248-.097.547-.678 1.026-1.065 1.504a458.208 458.208 0 01-3.714 4.581 37.518 37.518 0 01-1.518 1.778z"
                        fill="#fff" />
                    <path d="M40 645c8.837 0 16-7.163 16-16s-7.163-16-16-16-16 7.163-16 16 7.163 16 16 16z"
                        fill="#222" />
                    <path
                        d="M46.734 621h2.667l-5.548 5.754a5.014 5.014 0 01-7.271 0L31.034 621h2.667l4.214 4.371a3.175 3.175 0 004.605 0L46.734 621zM33.666 637H31l5.581-5.789a5.012 5.012 0 017.272 0L49.435 637h-2.667l-4.248-4.406a3.173 3.173 0 00-4.605 0L33.666 637z"
                        fill="#fff" />
                    <path d="M40 645a16 16 0 10.001-32A16 16 0 0040 645z" fill="#2775CA" />
                    <path
                        d="M44.383 631.543c0-2.333-1.42-3.12-4.166-3.496-2.03-.294-2.42-.77-2.42-1.717 0-.947.686-1.537 2-1.537 1.196 0 1.886.417 2.17 1.38a.506.506 0 00.483.37h1.05a.457.457 0 00.363-.161.466.466 0 00.107-.382c-.333-1.523-1.36-2.44-2.97-2.727v-1.606a.5.5 0 00-.5-.5h-1a.499.499 0 00-.5.5v1.55c-2 .28-3.263 1.6-3.263 3.293 0 2.19 1.333 3.04 4.12 3.417 1.896.31 2.436.72 2.436 1.796 0 1.077-.916 1.8-2.21 1.8-1.743 0-2.333-.763-2.53-1.753a.506.506 0 00-.49-.407h-1.14a.474.474 0 00-.453.342.468.468 0 00-.01.202c.29 1.666 1.36 2.886 3.54 3.18v1.579a.5.5 0 00.5.5h1a.499.499 0 00.5-.5v-1.579c2.067-.327 3.383-1.754 3.383-3.544z"
                        fill="#fff" />
                    <path
                        d="M36.57 638.56a10.006 10.006 0 01-6.57-9.394 9.999 9.999 0 016.57-9.393.72.72 0 00.43-.63v-.933a.475.475 0 00-.667-.477 11.996 11.996 0 00-8.356 11.433 12 12 0 008.356 11.434.477.477 0 00.471-.046.478.478 0 00.196-.431v-.933a.719.719 0 00-.43-.63zM43.666 617.733a.477.477 0 00-.47.046.468.468 0 00-.196.431v.933a.722.722 0 00.43.63 10 10 0 010 18.787.66.66 0 00-.43.63v.933a.47.47 0 00.196.431.475.475 0 00.47.046 12.002 12.002 0 006.045-18.514 11.996 11.996 0 00-6.045-4.353z"
                        fill="#fff" />
                    <path
                        d="M295.31 708.16h.944v-2.032c2.08-.128 3.568-1.536 3.568-3.36 0-2.064-1.216-2.816-3.568-3.232v-4c1.184.16 1.84.8 2.08 2.032h1.248c-.208-1.856-1.408-2.944-3.328-3.12v-1.456h-.944v1.44c-2 .128-3.376 1.424-3.376 3.088 0 1.92 1.264 2.672 3.376 3.072v4.448c-1.952-.176-2.336-1.28-2.496-2.528h-1.344c.192 1.84 1.104 3.424 3.84 3.616v2.032zm-2.112-10.768c0-.992.768-1.76 2.112-1.872v3.856c-1.776-.368-2.112-.976-2.112-1.984zm5.296 5.472c0 1.184-.96 2.048-2.24 2.176v-4.288c1.744.368 2.24.928 2.24 2.112zm7.281 3.28c2.416 0 3.952-1.536 3.952-3.824 0-2.096-1.472-3.744-3.744-3.744-1.328 0-2.4.624-2.944 1.552.064-3.024 1.28-4.576 3.008-4.576 1.28 0 1.856.576 2.112 1.632h1.328c-.304-1.84-1.568-2.768-3.344-2.768-2.624 0-4.48 2.144-4.48 6.256v.272c0 2.864.992 5.2 4.112 5.2zm0-1.088c-1.536 0-2.64-.992-2.64-2.864 0-1.488 1.088-2.528 2.624-2.528 1.552 0 2.544 1.072 2.544 2.72 0 1.616-1.024 2.672-2.528 2.672zm6.858.944h1.424l4.288-11.248v-.192h-7.536v1.12h5.808L312.633 706zm8.406 0h1.424l4.288-11.248v-.192h-7.536v1.12h5.808L321.039 706zm6.733.08a1.02 1.02 0 001.024-1.024 1.02 1.02 0 00-1.024-1.024 1.02 1.02 0 00-1.024 1.024 1.02 1.02 0 001.024 1.024zm6.521.064c2.176 0 3.92-1.472 3.92-3.888 0-2.336-1.504-3.792-3.552-3.792-1.088 0-1.872.352-2.336.784v-3.488h5.28v-1.2h-6.432v6.128h.512c.608-.688 1.376-1.104 2.704-1.104 1.456 0 2.4 1.056 2.4 2.672 0 1.728-.96 2.768-2.512 2.768-1.744 0-2.24-.864-2.464-2.112h-1.328c.16 1.872 1.344 3.232 3.808 3.232zm10.32 0c2.816 0 4.432-2.24 4.432-5.568v-.64c0-3.264-1.648-5.52-4.464-5.52-2.8 0-4.512 2.176-4.512 5.552v.64c0 3.328 1.808 5.536 4.544 5.536zm0-1.152c-1.904 0-3.12-1.504-3.12-4.4v-.64c0-2.816 1.152-4.416 3.088-4.416 1.936 0 3.056 1.728 3.056 4.384v.64c0 2.896-1.024 4.432-3.024 4.432zM73.44 706h3.92c2.288 0 3.76-1.04 3.76-3.2v-.064c0-1.488-.624-2.336-2.288-2.736 1.312-.448 1.728-1.376 1.728-2.416v-.064c0-2.256-1.552-2.96-3.68-2.96h-3.44V706zm1.36-6.448v-3.904h2.048c1.6 0 2.352.528 2.352 1.824v.064c0 1.408-.64 2.016-2.32 2.016H74.8zm0 5.36v-4.272h2.336c1.84 0 2.624.672 2.624 2.08v.064c0 1.392-.768 2.128-2.432 2.128H74.8zm9.17-9.024c.48 0 .88-.4.88-.88s-.4-.88-.88-.88-.88.4-.88.88.4.88.88.88zM83.33 706h1.327v-8.368H83.33V706zm6.59.112c.543 0 .863-.08 1.135-.176v-1.12a2.734 2.734 0 01-1.024.176c-.672 0-1.04-.4-1.04-1.216v-5.024h1.952v-1.12h-1.952v-1.904h-1.328v1.904h-1.2v1.12h1.2v5.152c0 1.312.736 2.208 2.256 2.208zm6.615.032c2.016 0 3.472-1.344 3.648-3.152h-1.232c-.144 1.36-1.216 2.048-2.4 2.048-1.616 0-2.736-1.088-2.736-3.136v-.128c0-1.968 1.168-3.184 2.688-3.184 1.152 0 2.112.496 2.32 1.824h1.312c-.256-2.128-1.888-2.928-3.632-2.928-2.24 0-4.064 1.728-4.064 4.288v.128c0 2.592 1.76 4.24 4.096 4.24zm9.125 0c2.384 0 4.128-1.744 4.128-4.272v-.128c0-2.512-1.744-4.256-4.112-4.256-2.368 0-4.112 1.76-4.112 4.272v.128c0 2.448 1.712 4.256 4.096 4.256zm.016-1.104c-1.696 0-2.736-1.248-2.736-3.152v-.128c0-1.92 1.056-3.168 2.736-3.168 1.664 0 2.736 1.248 2.736 3.184v.112c0 1.888-1.056 3.152-2.736 3.152zm6.84-9.152c.48 0 .88-.4.88-.88s-.4-.88-.88-.88-.88.4-.88.88.4.88.88.88zm-.64 10.112h1.328v-8.368h-1.328V706zm4.046 0h1.328v-5.072c0-1.504 1.104-2.288 2.336-2.288 1.344 0 1.968.656 1.968 2.128V706h1.328v-5.136c0-2.432-1.216-3.376-2.944-3.376-1.376 0-2.304.688-2.688 1.472v-1.328h-1.328V706z"
                        fill="#071422" />
                    <path d="M40 717c8.837 0 16-7.163 16-16s-7.163-16-16-16-16 7.163-16 16 7.163 16 16 16z"
                        fill="#ECB244" />
                    <path
                        d="M39.096 704.846h6.297v3.35h-3.875c.064.958.097 1.847.161 2.804h-3.261v-2.77h-3.876c0-1.093-.129-2.187.065-3.213.097-.547.678-1.026 1.033-1.504a461.04 461.04 0 013.714-4.581c.485-.582.969-1.129 1.518-1.778h-6.04v-3.35h3.586V691h3.132v2.735h3.908c0 1.128.129 2.222-.065 3.248-.097.547-.678 1.026-1.065 1.504a458.208 458.208 0 01-3.714 4.581 37.518 37.518 0 01-1.518 1.778z"
                        fill="#fff" />
                    <path d="M40 717c8.837 0 16-7.163 16-16s-7.163-16-16-16-16 7.163-16 16 7.163 16 16 16z"
                        fill="#222" />
                    <path
                        d="M46.734 693h2.667l-5.548 5.754a5.014 5.014 0 01-7.271 0L31.034 693h2.667l4.214 4.371a3.175 3.175 0 004.605 0L46.734 693zM33.666 709H31l5.581-5.789a5.012 5.012 0 017.272 0L49.435 709h-2.667l-4.248-4.406a3.173 3.173 0 00-4.605 0L33.666 709z"
                        fill="#fff" />
                    <path d="M40 717a16 16 0 10.001-32A16 16 0 0040 717z" fill="#2775CA" />
                    <path
                        d="M44.383 703.543c0-2.333-1.42-3.12-4.166-3.496-2.03-.294-2.42-.77-2.42-1.717 0-.947.686-1.537 2-1.537 1.196 0 1.886.417 2.17 1.38a.506.506 0 00.483.37h1.05a.457.457 0 00.363-.161.466.466 0 00.107-.382c-.333-1.523-1.36-2.44-2.97-2.727v-1.606a.5.5 0 00-.5-.5h-1a.499.499 0 00-.5.5v1.55c-2 .28-3.263 1.6-3.263 3.293 0 2.19 1.333 3.04 4.12 3.417 1.896.31 2.436.72 2.436 1.796 0 1.077-.916 1.8-2.21 1.8-1.743 0-2.333-.763-2.53-1.753a.506.506 0 00-.49-.407h-1.14a.474.474 0 00-.453.342.468.468 0 00-.01.202c.29 1.666 1.36 2.886 3.54 3.18v1.579a.5.5 0 00.5.5h1a.499.499 0 00.5-.5v-1.579c2.067-.327 3.383-1.754 3.383-3.544z"
                        fill="#fff" />
                    <path
                        d="M36.57 710.56a10.006 10.006 0 01-6.57-9.394 9.999 9.999 0 016.57-9.393.72.72 0 00.43-.63v-.933a.475.475 0 00-.667-.477 11.996 11.996 0 00-8.356 11.433 12 12 0 008.356 11.434.477.477 0 00.471-.046.478.478 0 00.196-.431v-.933a.719.719 0 00-.43-.63zM43.666 689.733a.477.477 0 00-.47.046.468.468 0 00-.196.431v.933a.722.722 0 00.43.63 10 10 0 010 18.787.66.66 0 00-.43.63v.933a.47.47 0 00.196.431.475.475 0 00.47.046 12.002 12.002 0 006.045-18.514 11.996 11.996 0 00-6.045-4.353z"
                        fill="#fff" />
                    <path d="M40 717c8.837 0 16-7.163 16-16s-7.163-16-16-16-16 7.163-16 16 7.163 16 16 16z"
                        fill="#2C7DF7" />
                    <path
                        d="M42.464 712.413c-1.641 0-2.838-.384-3.59-1.178-.75-.794-1.114-1.624-1.114-2.541 0-.323.061-.609.204-.834.123-.225.302-.406.527-.528.225-.123.506-.205.833-.205.327 0 .608.062.833.205.225.122.404.303.527.528.122.225.204.507.204.834 0 .405-.102.733-.286.974a1.382 1.382 0 01-.69.507c.225.303.588.528 1.074.671a5.1 5.1 0 001.462.205c.69 0 1.299-.184 1.846-.548.547-.364.951-.913 1.217-1.625.265-.712.384-1.522.384-2.438 0-.994-.143-1.829-.425-2.521-.286-.712-.69-1.239-1.237-1.563a3.273 3.273 0 00-1.785-.507c-.425 0-.931.184-1.56.528l-1.143.548v-.569l5.17-6.906H37.76v7.172c0 .59.123 1.076.384 1.465.265.385.67.569 1.196.569.425 0 .813-.143 1.197-.426.384-.286.71-.63.992-1.014.041-.082.082-.144.123-.164.061-.041.102-.061.163-.061.102 0 .204.041.343.143a.724.724 0 01.184.487c0 .082-.04.204-.061.364-.286.671-.69 1.178-1.217 1.522a3.085 3.085 0 01-1.724.528c-1.56 0-2.617-.303-3.226-.913-.588-.609-.89-1.444-.89-2.479v-7.193h-3.65v-1.342h3.67v-3.048l-.833-.835v-.692h2.434l.91.467v4.087l9.471-.02.931.933-5.795 5.834c.343-.143.71-.225 1.095-.266.629 0 1.34.205 2.107.61.792.385 1.4.933 1.825 1.624.425.692.71 1.342.833 1.973.123.63.205 1.178.205 1.685a7.024 7.024 0 01-.711 3.11c-.465.953-1.176 1.686-2.148 2.152-.956.466-1.989.691-3.104.691z"
                        fill="#fff" />
                    <path d="M48.611 713.888A15.5 15.5 0 1131.39 688.11a15.5 15.5 0 0117.222 25.778z" fill="#fff"
                        stroke="#F1F3F5" />
                    <path
                        d="M47.177 694.664l-2.408 1.227-11.629 5.924a6.927 6.927 0 0110.246-6.944l1.379-.702.205-.105a8.459 8.459 0 00-12.186 2.428 8.46 8.46 0 00-1.221 5.064 1.542 1.542 0 01-.836 1.488l-.727.371v1.728l2.14-1.09.693-.354.683-.348 12.26-6.246 1.377-.702L50 694.952v-1.728l-2.823 1.44zM50 696.682l-15.788 8.038-1.377.703L30 706.868v1.727l2.815-1.434 2.408-1.227 11.641-5.932a6.928 6.928 0 01-10.256 6.949l-.085.045-1.494.761a8.456 8.456 0 008.813.692 8.46 8.46 0 004.595-8.186 1.539 1.539 0 01.835-1.488l.728-.371v-1.722z"
                        fill="#000" />
                    <path d="M40 717c8.837 0 16-7.163 16-16s-7.163-16-16-16-16 7.163-16 16 7.163 16 16 16z"
                        fill="#5F45BA" />
                    <path fill-rule="evenodd" clip-rule="evenodd"
                        d="M34.324 694.312a1.06 1.06 0 11-1.824-1.082 1.06 1.06 0 011.824 1.082zM30.705 693.842a.748.748 0 11-1.287-.763.748.748 0 011.287.763zM40.78 709.189a8.253 8.253 0 10-2.052-16.375c-1.093.089-2.016.506-2.016.506-.747.364-1.23.975-1.23 1.793 0 1.063.862 1.925 1.925 1.925.178 0 .794-.194.939-.245a4.447 4.447 0 015.354 2.047 4.45 4.45 0 01-7.604 4.605v-.001c-.89-1.163-.684-3.022-.685-3.045a1.927 1.927 0 00-3.786-.435c-.044.161-.065.633-.06.696a8.25 8.25 0 009.215 8.529zM33.22 697.256a1.375 1.375 0 11-2.365-1.404 1.375 1.375 0 012.365 1.404z"
                        fill="#fff" />
                    <path d="M40 717c8.837 0 16-7.163 16-16s-7.163-16-16-16-16 7.163-16 16 7.163 16 16 16z"
                        fill="#31CB9E" />
                    <path
                        d="M38.973 700.955l7.44 4.265a.393.393 0 00.587-.337v-7.856a.393.393 0 00-.587-.337l-7.44 4.265zM41.04 710.839l4.95-3.779a.393.393 0 00-.039-.651l-7.336-4.203 1.81 8.405c.049.279.38.4.615.228z"
                        fill="#fff" />
                    <path
                        d="M37.065 700.956l1.947-9.056a.39.39 0 00-.623-.388l-4.984 3.81a1.035 1.035 0 00-.405.823v9.644c0 .32.149.629.405.823l4.984 3.804c.286.216.697-.04.623-.388l-1.947-9.072z"
                        fill="#fff" />
                    <path
                        d="M45.98 694.853l-4.94-3.774a.396.396 0 00-.623.228l-1.804 8.406 7.325-4.209a.387.387 0 00.041-.651z"
                        fill="#fff" />
                    <path d="M40 717c8.837 0 16-7.163 16-16s-7.163-16-16-16-16 7.163-16 16 7.163 16 16 16z"
                        fill="#17DE8D" />
                    <path
                        d="M39.989 701.553l-6.721-.577 6.72-3.802v4.379zm0 4.461v6.938c-2.337-3.636-4.913-7.64-6.989-10.882 2.45 1.38 5.008 2.823 6.989 3.944zm0-10.069l-6.989 3.9L39.989 689v6.945z"
                        fill="#fff" />
                    <path
                        d="M46.71 700.976l-6.721.577v-4.379l6.72 3.802zm-6.721 5.038c1.98-1.121 4.537-2.564 6.988-3.944-2.076 3.242-4.652 7.246-6.988 10.882v-6.938zm0-10.069V689l6.988 10.845-6.988-3.9z"
                        fill="#fff" fill-opacity=".601" />
                    <path opacity=".2" fill-rule="evenodd" clip-rule="evenodd"
                        d="M39.989 701.553l6.72-.577-6.72 3.775v-3.198z" fill="#fff" />
                    <path opacity=".603" fill-rule="evenodd" clip-rule="evenodd"
                        d="M39.988 701.553l-6.721-.577 6.721 3.775v-3.198z" fill="#fff" />
                    <path d="M40 717c8.837 0 16-7.163 16-16s-7.163-16-16-16-16 7.163-16 16 7.163 16 16 16z"
                        fill="#627EEA" />
                    <path d="M39.998 689v8.502l6.998 3.211L39.998 689z" fill="#fff" fill-opacity=".602" />
                    <path d="M39.998 689L33 700.713l6.998-3.211V689z" fill="#fff" />
                    <path d="M39.998 706.223V712L47 702.051l-7.002 4.172z" fill="#fff" fill-opacity=".602" />
                    <path d="M39.998 712v-5.778L33 702.051 39.998 712z" fill="#fff" />
                    <path d="M39.998 704.886l6.998-4.173-6.998-3.209v7.382z" fill="#fff" fill-opacity=".2" />
                    <path d="M33 700.713l6.998 4.173v-7.382L33 700.713z" fill="#fff" fill-opacity=".602" />
                    <path d="M40 717c8.837 0 16-7.163 16-16s-7.163-16-16-16-16 7.163-16 16 7.163 16 16 16z"
                        fill="#000" />
                    <path
                        d="M34.886 696.61L40 712.667l-7.588-4.754 2.474-11.303L40 689.624v4.9l-7.588 13.389h15.183l-7.588-13.389v-4.9l5.113 6.986 2.475 11.303-7.588 4.754 5.113-16.057"
                        stroke="#fff" stroke-width=".64" stroke-linecap="round" stroke-linejoin="round" />
                    <path d="M40 717c8.837 0 16-7.163 16-16s-7.163-16-16-16-16 7.163-16 16 7.163 16 16 16z"
                        fill="#008CE7" />
                    <path
                        d="M43.086 693.004H35.81l-.602 3.367 6.562.01c3.23 0 4.19 1.173 4.159 3.12-.014.998-.45 2.686-.633 3.23-.497 1.46-1.521 3.122-5.36 3.117l-6.377-.004-.602 3.371h7.257c2.559 0 3.649-.299 4.8-.83 2.554-1.178 4.075-3.701 4.686-6.994.906-4.9-.224-8.387-6.615-8.387z"
                        fill="#fff" />
                    <path
                        d="M39.807 700.798c.237-.985.312-1.38.312-1.38h-7.446c-1.904 0-2.176 1.24-2.357 1.99-.237.981-.312 1.381-.312 1.381h7.447c1.903 0 2.175-1.24 2.356-1.991z"
                        fill="#fff" />
                    <g filter="url(#filter0_d)">
                        <path d="M40 717c8.836 0 16-7.164 16-16s-7.164-16-16-16-16 7.164-16 16 7.164 16 16 16z"
                            fill="#FFC926" />
                        <path
                            d="M50 698.491h-2.145c-1.055-2.946-3.891-5.091-7.2-5.091h-6.582v5.091H32v1.491h2.073v2.072H32v1.491h2.073v5.091h6.581a7.637 7.637 0 007.2-5.091H50v-1.491h-1.782c.036-.327.073-.69.073-1.018 0-.363-.036-.691-.073-1.018H50v-1.527zm-14.436-3.6h5.09c2.473 0 4.619 1.491 5.6 3.6h-10.69v-3.6zm5.09 12.218h-5.09v-3.6h10.69a6.129 6.129 0 01-5.6 3.6zm6.073-5.091H35.6v-2.073h11.127c.073.328.073.691.073 1.019 0 .4-.036.727-.073 1.054z"
                            fill="#fff" />
                    </g>
                    <path d="M40 717c8.837 0 16-7.163 16-16s-7.163-16-16-16-16 7.163-16 16 7.163 16 16 16z"
                        fill="#2E3148" />
                    <path
                        d="M40.02 690.53c-1.295 0-2.345 4.697-2.345 10.49s1.05 10.49 2.345 10.49c1.294 0 2.344-4.697 2.344-10.49s-1.05-10.49-2.344-10.49zm.162 20.387c-.148.198-.297.05-.297.05-.596-.692-.894-1.975-.894-1.975-1.043-3.357-.795-10.564-.795-10.564.49-5.721 1.382-7.073 1.685-7.373a.182.182 0 01.116-.053.19.19 0 01.122.034c.44.313.81 1.617.81 1.617 1.09 4.048.991 7.848.991 7.848.099 3.308-.546 7.01-.546 7.01-.497 2.814-1.192 3.406-1.192 3.406z"
                        fill="#fff" />
                    <path
                        d="M49.118 695.8c-.645-1.124-5.24.303-10.267 3.186-5.027 2.883-8.573 6.13-7.93 7.254.645 1.124 5.241-.303 10.268-3.186 5.027-2.883 8.574-6.131 7.93-7.254h-.001zm-17.603 10.285c-.246-.03-.19-.234-.19-.234.302-.86 1.266-1.758 1.266-1.758 2.393-2.575 8.769-5.946 8.769-5.946 5.206-2.422 6.823-2.32 7.233-2.208a.186.186 0 01.135.198c-.05.537-1 1.507-1 1.507-2.966 2.961-6.312 4.768-6.312 4.768-2.82 1.732-6.353 3.013-6.353 3.013-2.688.968-3.548.66-3.548.66z"
                        fill="#fff" />
                    <path
                        d="M49.095 706.277c.65-1.12-2.887-4.383-7.898-7.288-5.01-2.904-9.604-4.348-10.253-3.226-.65 1.123 2.888 4.383 7.9 7.288 5.013 2.904 9.602 4.348 10.25 3.226zm-17.72-10.081c-.097-.228.106-.283.106-.283.897-.17 2.157.217 2.157.217 3.427.78 9.538 4.608 9.538 4.608 4.705 3.292 5.427 4.743 5.535 5.154a.184.184 0 01-.103.215c-.49.225-1.805-.11-1.805-.11-4.05-1.086-7.29-3.075-7.29-3.075-2.91-1.57-5.787-3.985-5.787-3.985-2.187-1.842-2.35-2.74-2.35-2.74l-.002-.001z"
                        fill="#fff" />
                    <path
                        d="M39.995 702.229a1.234 1.234 0 100-2.467 1.234 1.234 0 000 2.467zM45.055 697.256a1 1 0 100-2 1 1 0 000 2zM33.306 699.774a1 1 0 100-2 1 1 0 000 2zM38.54 708.856a1 1 0 10-.001-2 1 1 0 000 2z"
                        fill="#fff" />
                    <path d="M48.611 713.888A15.5 15.5 0 1131.39 688.11a15.5 15.5 0 0117.222 25.778z" fill="#fff"
                        stroke="#F1F3F5" />
                    <path
                        d="M40 691.75l-1.693.974-4.614 2.666-1.693.974v9.227l1.693.974 4.656 2.666 1.693.974 1.693-.974 4.572-2.666 1.693-.974v-9.227l-1.693-.974-4.614-2.666L40 691.75zm-4.614 11.894v-5.333L40 695.644l4.614 2.667v5.333L40 706.311l-4.614-2.667z"
                        fill="#2A5ADA" />
                    <path d="M40 717c8.837 0 16-7.163 16-16s-7.163-16-16-16-16 7.163-16 16 7.163 16 16 16z"
                        fill="#8DC351" />
                    <path
                        d="M45.207 695.534c-.776-1.972-2.722-2.15-4.988-1.71l-.807-2.813-1.712.491.786 2.74c-.45.128-.908.27-1.363.41l-.79-2.758-1.71.49.804 2.813c-.368.114-.73.226-1.085.328l-.003-.01-2.362.677.525 1.83s1.258-.388 1.243-.358c.694-.199 1.035.139 1.2.468l.92 3.204c.047-.013.11-.029.184-.04l-.18.052 1.286 4.49c.032.227.004.612-.48.752.027.013-1.246.356-1.246.356l.247 2.143 2.228-.64c.415-.117.825-.227 1.226-.34l.817 2.845 1.71-.49-.807-2.815c.459-.122.916-.248 1.372-.38l.802 2.803 1.713-.491-.814-2.84c2.831-.991 4.638-2.294 4.113-5.07-.422-2.234-1.724-2.912-3.47-2.836.847-.79 1.212-1.858.641-3.3v-.001zm-.65 6.77c.61 2.127-3.1 2.929-4.26 3.263l-1.08-3.77c1.159-.333 4.703-1.71 5.34.508v-.001zm-2.322-5.09c.554 1.935-2.547 2.58-3.514 2.857l-.98-3.419c.966-.277 3.915-1.455 4.494.563v-.001z"
                        fill="#fff" />
                    <path d="M40 717c8.837 0 16-7.163 16-16s-7.163-16-16-16-16 7.163-16 16 7.163 16 16 16z"
                        fill="#F7931A" />
                    <path
                        d="M47.032 699.02c.314-2.096-1.283-3.223-3.465-3.975l.708-2.84-1.728-.43-.69 2.765c-.454-.114-.92-.22-1.385-.326l.695-2.783-1.728-.431-.708 2.839c-.376-.086-.746-.17-1.104-.26l.002-.009-2.384-.595-.46 1.846s1.283.294 1.256.312c.7.175.826.638.805 1.006l-.806 3.235c.048.012.11.03.18.057l-.183-.045-1.13 4.532c-.086.212-.303.531-.793.41.018.025-1.256-.313-1.256-.313L32 705.993l2.25.561c.418.105.828.215 1.231.318l-.715 2.872 1.727.43.708-2.84c.472.127.93.245 1.378.357l-.706 2.828 1.728.43.715-2.866c2.948.558 5.164.333 6.097-2.333.752-2.146-.037-3.385-1.588-4.192 1.13-.26 1.98-1.003 2.207-2.538zm-3.95 5.538c-.533 2.147-4.148.986-5.32.695l.95-3.805c1.172.293 4.929.872 4.37 3.11zm.535-5.569c-.487 1.953-3.495.96-4.47.717l.86-3.45c.975.243 4.118.696 3.61 2.733z"
                        fill="#fff" />
                    <path
                        d="M293.513 772.16h.944v-2.032c2.08-.128 3.568-1.536 3.568-3.36 0-2.064-1.216-2.816-3.568-3.232v-4c1.184.16 1.84.8 2.08 2.032h1.248c-.208-1.856-1.408-2.944-3.328-3.12v-1.456h-.944v1.44c-2 .128-3.376 1.424-3.376 3.088 0 1.92 1.264 2.672 3.376 3.072v4.448c-1.952-.176-2.336-1.28-2.496-2.528h-1.344c.192 1.84 1.104 3.424 3.84 3.616v2.032zm-2.112-10.768c0-.992.768-1.76 2.112-1.872v3.856c-1.776-.368-2.112-.976-2.112-1.984zm5.296 5.472c0 1.184-.96 2.048-2.24 2.176v-4.288c1.744.368 2.24.928 2.24 2.112zm6.927 3.28c2.368 0 4.064-1.248 4.064-3.328 0-1.584-.864-2.528-2.208-2.88 1.04-.432 1.808-1.2 1.808-2.496 0-1.584-1.264-3.024-3.44-3.024s-3.664 1.488-3.744 3.296h1.216c.144-1.296 1.104-2.16 2.528-2.16 1.392 0 2.08.832 2.08 1.92 0 1.248-.656 1.952-2.144 1.952h-.8v1.168h.864c1.616 0 2.416.752 2.416 2.224 0 1.344-.816 2.208-2.608 2.208-1.808 0-2.624-1.04-2.752-2.4h-1.28c.08 2 1.568 3.52 4 3.52zm5.321-.144h7.664v-1.136h-5.52l3.152-3.072c1.408-1.376 2.304-2.752 2.304-4.16 0-1.968-1.344-3.216-3.456-3.216-2.176 0-3.536 1.424-3.712 3.664h1.296c.224-1.792 1.088-2.544 2.416-2.544 1.296 0 2.048.768 2.048 2.048 0 1.168-.608 2.208-1.648 3.312l-4.544 4.784v.32zm13.263.144c1.936 0 3.936-1.136 3.936-3.424 0-1.472-.864-2.464-2.192-2.944 1.056-.464 1.76-1.264 1.76-2.416 0-1.792-1.728-2.944-3.504-2.944-1.76 0-3.52 1.12-3.52 2.976 0 1.12.64 1.984 1.728 2.4-1.216.432-2.16 1.424-2.16 2.96 0 2.272 2.08 3.392 3.952 3.392zm.048-6.848c-1.168 0-2.16-.688-2.16-1.888 0-1.184.928-1.904 2.112-1.904 1.184 0 2.096.768 2.096 1.872 0 1.216-.832 1.92-2.048 1.92zm-.048 5.712c-1.328 0-2.528-.8-2.528-2.304 0-1.52 1.2-2.304 2.56-2.304s2.48.768 2.48 2.272c0 1.52-1.104 2.336-2.512 2.336zm6.704 1.072a1.02 1.02 0 001.024-1.024 1.02 1.02 0 00-1.024-1.024 1.02 1.02 0 00-1.024 1.024 1.02 1.02 0 001.024 1.024zm6.416.048c2.736 0 4.304-2.096 4.304-5.888v-.72c0-3.296-1.408-5.12-4.112-5.12-2.416 0-3.952 1.536-3.952 3.824 0 2.16 1.536 3.744 3.76 3.744 1.312 0 2.416-.592 2.96-1.52-.032 3.04-1.104 4.544-2.928 4.544-1.472 0-2.112-.688-2.368-1.808h-1.344c.304 1.84 1.568 2.944 3.68 2.944zm.208-5.248c-1.552 0-2.544-1.072-2.544-2.72 0-1.616 1.024-2.672 2.528-2.672 1.536 0 2.64 1.04 2.64 2.912 0 1.488-1.088 2.48-2.624 2.48zm9.569 5.264c2.176 0 3.92-1.472 3.92-3.888 0-2.336-1.504-3.792-3.552-3.792-1.088 0-1.872.352-2.336.784v-3.488h5.28v-1.2h-6.432v6.128h.512c.608-.688 1.376-1.104 2.704-1.104 1.456 0 2.4 1.056 2.4 2.672 0 1.728-.96 2.768-2.512 2.768-1.744 0-2.24-.864-2.464-2.112h-1.328c.16 1.872 1.344 3.232 3.808 3.232z"
                        fill="#071422" />
                    <path
                        d="M271.702 789.117c1.768 0 3.185-1.196 3.185-3.159 0-1.898-1.222-3.081-2.886-3.081-.884 0-1.521.286-1.898.637v-2.834h4.29v-.975h-5.226v4.979h.416c.494-.559 1.118-.897 2.197-.897 1.183 0 1.95.858 1.95 2.171 0 1.404-.78 2.249-2.041 2.249-1.417 0-1.82-.702-2.002-1.716h-1.079c.13 1.521 1.092 2.626 3.094 2.626zm5.289-.052a.83.83 0 00.832-.832.83.83 0 00-.832-.832.83.83 0 00-.832.832.83.83 0 00.832.832zm5.661.052c2.288 0 3.601-1.82 3.601-4.524v-.52c0-2.652-1.339-4.485-3.627-4.485-2.275 0-3.666 1.768-3.666 4.511v.52c0 2.704 1.469 4.498 3.692 4.498zm0-.936c-1.547 0-2.535-1.222-2.535-3.575v-.52c0-2.288.936-3.588 2.509-3.588s2.483 1.404 2.483 3.562v.52c0 2.353-.832 3.601-2.457 3.601zm8.083.923c2.223 0 3.497-1.703 3.497-4.784v-.585c0-2.678-1.144-4.16-3.341-4.16-1.963 0-3.211 1.248-3.211 3.107 0 1.755 1.248 3.042 3.055 3.042 1.066 0 1.963-.481 2.405-1.235-.026 2.47-.897 3.692-2.379 3.692-1.196 0-1.716-.559-1.924-1.469h-1.092c.247 1.495 1.274 2.392 2.99 2.392zm.169-4.264c-1.261 0-2.067-.871-2.067-2.21 0-1.313.832-2.171 2.054-2.171 1.248 0 2.145.845 2.145 2.366 0 1.209-.884 2.015-2.132 2.015zm7.765 4.264c2.223 0 3.497-1.703 3.497-4.784v-.585c0-2.678-1.144-4.16-3.341-4.16-1.963 0-3.211 1.248-3.211 3.107 0 1.755 1.248 3.042 3.055 3.042 1.066 0 1.963-.481 2.405-1.235-.026 2.47-.897 3.692-2.379 3.692-1.196 0-1.716-.559-1.924-1.469h-1.092c.247 1.495 1.274 2.392 2.99 2.392zm.169-4.264c-1.261 0-2.067-.871-2.067-2.21 0-1.313.832-2.171 2.054-2.171 1.248 0 2.145.845 2.145 2.366 0 1.209-.884 2.015-2.132 2.015zm6.632 4.16h1.131v-9.295h-1.053l-2.158 1.56v1.053l2.08-1.495V789zm2.93 0h6.227v-.923h-4.485l2.561-2.496c1.144-1.118 1.872-2.236 1.872-3.38 0-1.599-1.092-2.613-2.808-2.613-1.768 0-2.873 1.157-3.016 2.977h1.053c.182-1.456.884-2.067 1.963-2.067 1.053 0 1.664.624 1.664 1.664 0 .949-.494 1.794-1.339 2.691l-3.692 3.887v.26zm10.722.104c2.223 0 3.497-1.703 3.497-4.784v-.585c0-2.678-1.144-4.16-3.341-4.16-1.963 0-3.211 1.248-3.211 3.107 0 1.755 1.248 3.042 3.055 3.042 1.066 0 1.963-.481 2.405-1.235-.026 2.47-.897 3.692-2.379 3.692-1.196 0-1.716-.559-1.924-1.469h-1.092c.247 1.495 1.274 2.392 2.99 2.392zm.169-4.264c-1.261 0-2.067-.871-2.067-2.21 0-1.313.832-2.171 2.054-2.171 1.248 0 2.145.845 2.145 2.366 0 1.209-.884 2.015-2.132 2.015zm8.733 4.16h5.655v-.923h-4.524v-3.367h3.458v-.923h-3.458v-3.159h4.29v-.923h-5.421V789zm9.274 0h1.131v-8.372h2.704v-.923h-6.539v.923h2.704V789zm5.376 0h1.131v-4.134h4.888V789h1.131v-9.295h-1.131v4.212h-4.888v-4.212h-1.131V789z"
                        fill="#587088" />
                    <path
                        d="M73.44 778h6.96v-1.136h-5.568v-4.144h4.256v-1.136h-4.256v-3.888h5.28v-1.136H73.44V778zm11.51.112c.544 0 .864-.08 1.136-.176v-1.12a2.734 2.734 0 01-1.023.176c-.672 0-1.04-.4-1.04-1.216v-5.024h1.952v-1.12h-1.953v-1.904h-1.328v1.904h-1.2v1.12h1.2v5.152c0 1.312.736 2.208 2.257 2.208zm3.144-.112h1.328v-5.072c0-1.504 1.104-2.288 2.336-2.288 1.344 0 1.968.656 1.968 2.128V778h1.328v-5.136c0-2.432-1.216-3.376-2.944-3.376-1.376 0-2.304.688-2.688 1.472v-5.328h-1.328V778zm12.987.144c1.888 0 3.28-.88 3.568-2.56h-1.328c-.176.976-.928 1.456-2.224 1.456-1.712 0-2.624-1.056-2.688-2.96h6.304v-.432c0-2.992-1.824-4.16-3.76-4.16-2.305 0-3.92 1.76-3.92 4.288v.128c0 2.576 1.68 4.24 4.048 4.24zm-2.624-5.136c.224-1.488 1.136-2.416 2.496-2.416 1.376 0 2.272.688 2.4 2.416h-4.896zM106.75 778h1.328v-4.592c0-2.064 1.072-2.592 2.752-2.672v-1.248c-1.504.048-2.224.704-2.752 1.648v-1.504h-1.328V778zm9.206.144c1.888 0 3.28-.88 3.568-2.56h-1.328c-.176.976-.928 1.456-2.224 1.456-1.712 0-2.624-1.056-2.688-2.96h6.304v-.432c0-2.992-1.824-4.16-3.76-4.16-2.304 0-3.92 1.76-3.92 4.288v.128c0 2.576 1.68 4.24 4.048 4.24zm-2.624-5.136c.224-1.488 1.136-2.416 2.496-2.416 1.376 0 2.272.688 2.4 2.416h-4.896zm11.125 5.136c1.344 0 2.272-.688 2.656-1.472V778h1.328v-8.368h-1.328v5.072c0 1.504-1.12 2.288-2.304 2.288-1.312 0-1.936-.656-1.936-2.128v-5.232h-1.328v5.296c0 2.304 1.248 3.216 2.912 3.216zm6.668-.144h1.328v-5.12c0-1.504 1.12-2.24 2.208-2.24 1.152 0 1.776.608 1.776 2.08V778h1.328v-5.12c0-1.504 1.12-2.24 2.208-2.24 1.152 0 1.776.608 1.776 2.08V778h1.328v-5.184c0-2.432-1.312-3.328-2.816-3.328-1.04 0-2.288.48-2.864 1.568-.432-1.12-1.376-1.568-2.448-1.568-1.2 0-2.112.64-2.496 1.424v-1.28h-1.328V778z"
                        fill="#071422" />
                    <path d="M40 789c8.837 0 16-7.163 16-16s-7.163-16-16-16-16 7.163-16 16 7.163 16 16 16z"
                        fill="#ECB244" />
                    <path
                        d="M39.096 776.846h6.297v3.35h-3.875c.064.958.097 1.847.161 2.804h-3.261v-2.77h-3.876c0-1.093-.129-2.187.065-3.213.097-.547.678-1.026 1.033-1.504a461.04 461.04 0 013.714-4.581c.485-.582.969-1.129 1.518-1.778h-6.04v-3.35h3.586V763h3.132v2.735h3.908c0 1.128.129 2.222-.065 3.248-.097.547-.678 1.026-1.065 1.504a458.208 458.208 0 01-3.714 4.581 37.518 37.518 0 01-1.518 1.778z"
                        fill="#fff" />
                    <path d="M40 789c8.837 0 16-7.163 16-16s-7.163-16-16-16-16 7.163-16 16 7.163 16 16 16z"
                        fill="#222" />
                    <path
                        d="M46.734 765h2.667l-5.548 5.754a5.014 5.014 0 01-7.271 0L31.034 765h2.667l4.214 4.371a3.175 3.175 0 004.605 0L46.734 765zM33.666 781H31l5.581-5.789a5.012 5.012 0 017.272 0L49.435 781h-2.667l-4.248-4.406a3.173 3.173 0 00-4.605 0L33.666 781z"
                        fill="#fff" />
                    <path d="M40 789c8.837 0 16-7.163 16-16s-7.163-16-16-16-16 7.163-16 16 7.163 16 16 16z"
                        fill="#2C7DF7" />
                    <path
                        d="M42.464 784.413c-1.641 0-2.838-.384-3.59-1.178-.75-.794-1.114-1.624-1.114-2.541 0-.323.061-.609.204-.834.123-.225.302-.406.527-.528.225-.123.506-.205.833-.205.327 0 .608.062.833.205.225.122.404.303.527.528.122.225.204.507.204.834 0 .405-.102.733-.286.974a1.382 1.382 0 01-.69.507c.225.303.588.528 1.074.671a5.1 5.1 0 001.462.205c.69 0 1.299-.184 1.846-.548.547-.364.951-.913 1.217-1.625.265-.712.384-1.522.384-2.438 0-.994-.143-1.829-.425-2.521-.286-.712-.69-1.239-1.237-1.563a3.273 3.273 0 00-1.785-.507c-.425 0-.931.184-1.56.528l-1.143.548v-.569l5.17-6.906H37.76v7.172c0 .59.123 1.076.384 1.465.265.385.67.569 1.196.569.425 0 .813-.143 1.197-.426.384-.286.71-.63.992-1.014.041-.082.082-.144.123-.164.061-.041.102-.061.163-.061.102 0 .204.041.343.143a.724.724 0 01.184.487c0 .082-.04.204-.061.364-.286.671-.69 1.178-1.217 1.522a3.085 3.085 0 01-1.724.528c-1.56 0-2.617-.303-3.226-.913-.588-.609-.89-1.444-.89-2.479v-7.193h-3.65v-1.342h3.67v-3.048l-.833-.835v-.692h2.434l.91.467v4.087l9.471-.02.931.933-5.795 5.834c.343-.143.71-.225 1.095-.266.629 0 1.34.205 2.107.61.792.385 1.4.933 1.825 1.624.425.692.71 1.342.833 1.973.123.63.205 1.178.205 1.685a7.024 7.024 0 01-.711 3.11c-.465.953-1.176 1.686-2.148 2.152-.956.466-1.989.691-3.104.691z"
                        fill="#fff" />
                    <path d="M48.611 785.888A15.5 15.5 0 1131.39 760.11a15.5 15.5 0 0117.222 25.778z" fill="#fff"
                        stroke="#F1F3F5" />
                    <path
                        d="M47.177 766.664l-2.408 1.227-11.629 5.924a6.927 6.927 0 0110.246-6.944l1.379-.702.205-.105a8.459 8.459 0 00-12.186 2.428 8.46 8.46 0 00-1.221 5.064 1.542 1.542 0 01-.836 1.488l-.727.371v1.728l2.14-1.09.693-.354.683-.348 12.26-6.246 1.377-.702L50 766.952v-1.728l-2.823 1.44zM50 768.682l-15.788 8.038-1.377.703L30 778.868v1.727l2.815-1.434 2.408-1.227 11.641-5.932a6.928 6.928 0 01-10.256 6.949l-.085.045-1.494.761a8.456 8.456 0 008.813.692 8.46 8.46 0 004.595-8.186 1.539 1.539 0 01.835-1.488l.728-.371v-1.722z"
                        fill="#000" />
                    <path d="M40 789c8.837 0 16-7.163 16-16s-7.163-16-16-16-16 7.163-16 16 7.163 16 16 16z"
                        fill="#5F45BA" />
                    <path fill-rule="evenodd" clip-rule="evenodd"
                        d="M34.324 766.312a1.06 1.06 0 11-1.824-1.082 1.06 1.06 0 011.824 1.082zM30.705 765.842a.748.748 0 11-1.287-.763.748.748 0 011.287.763zM40.78 781.189a8.253 8.253 0 10-2.052-16.375c-1.093.089-2.016.506-2.016.506-.747.364-1.23.975-1.23 1.793 0 1.063.862 1.925 1.925 1.925.178 0 .794-.194.939-.245a4.447 4.447 0 015.354 2.047 4.45 4.45 0 01-7.604 4.605v-.001c-.89-1.163-.684-3.022-.685-3.045a1.927 1.927 0 00-3.786-.435c-.044.161-.065.633-.06.696a8.25 8.25 0 009.215 8.529zM33.22 769.256a1.375 1.375 0 11-2.365-1.404 1.375 1.375 0 012.365 1.404z"
                        fill="#fff" />
                    <path d="M40 789c8.837 0 16-7.163 16-16s-7.163-16-16-16-16 7.163-16 16 7.163 16 16 16z"
                        fill="#31CB9E" />
                    <path
                        d="M38.973 772.955l7.44 4.265a.393.393 0 00.587-.337v-7.856a.393.393 0 00-.587-.337l-7.44 4.265zM41.04 782.839l4.95-3.779a.393.393 0 00-.039-.651l-7.336-4.203 1.81 8.405c.049.279.38.4.615.228z"
                        fill="#fff" />
                    <path
                        d="M37.065 772.956l1.947-9.056a.39.39 0 00-.623-.388l-4.984 3.81a1.035 1.035 0 00-.405.823v9.644c0 .32.149.629.405.823l4.984 3.804c.286.216.697-.04.623-.388l-1.947-9.072z"
                        fill="#fff" />
                    <path
                        d="M45.98 766.853l-4.94-3.774a.396.396 0 00-.623.228l-1.804 8.406 7.325-4.209a.387.387 0 00.041-.651z"
                        fill="#fff" />
                    <path d="M40 789c8.837 0 16-7.163 16-16s-7.163-16-16-16-16 7.163-16 16 7.163 16 16 16z"
                        fill="#17DE8D" />
                    <path
                        d="M39.989 773.553l-6.721-.577 6.72-3.802v4.379zm0 4.461v6.938c-2.337-3.636-4.913-7.64-6.989-10.882 2.45 1.38 5.008 2.823 6.989 3.944zm0-10.069l-6.989 3.9L39.989 761v6.945z"
                        fill="#fff" />
                    <path
                        d="M46.71 772.976l-6.721.577v-4.379l6.72 3.802zm-6.721 5.038c1.98-1.121 4.537-2.564 6.988-3.944-2.076 3.242-4.652 7.246-6.988 10.882v-6.938zm0-10.069V761l6.988 10.845-6.988-3.9z"
                        fill="#fff" fill-opacity=".601" />
                    <path opacity=".2" fill-rule="evenodd" clip-rule="evenodd"
                        d="M39.989 773.553l6.72-.577-6.72 3.775v-3.198z" fill="#fff" />
                    <path opacity=".603" fill-rule="evenodd" clip-rule="evenodd"
                        d="M39.988 773.553l-6.721-.577 6.721 3.775v-3.198z" fill="#fff" />
                    <path d="M40 789c8.837 0 16-7.163 16-16s-7.163-16-16-16-16 7.163-16 16 7.163 16 16 16z"
                        fill="#627EEA" />
                    <path d="M39.998 761v8.502l6.998 3.211L39.998 761z" fill="#fff" fill-opacity=".602" />
                    <path d="M39.998 761L33 772.713l6.998-3.211V761z" fill="#fff" />
                    <path d="M39.998 778.223V784L47 774.051l-7.002 4.172z" fill="#fff" fill-opacity=".602" />
                    <path d="M39.998 784v-5.778L33 774.051 39.998 784z" fill="#fff" />
                    <path d="M39.998 776.886l6.998-4.173-6.998-3.209v7.382z" fill="#fff" fill-opacity=".2" />
                    <path d="M33 772.713l6.998 4.173v-7.382L33 772.713z" fill="#fff" fill-opacity=".602" />
                    <path fill="#fff" d="M0 137h375v384H0z" />
                    <path
                        d="M24 381.346l2.706 4.864a1 1 0 001.713.058l2.491-3.839c.078-.119.18-.22.299-.297l3.076-1.974c.167-.108.299-.262.378-.445l3.392-7.84 2.266-7.563c.305-1.017 1.775-.921 1.945.127l2.379 14.659c.15.921 1.365 1.154 1.845.354l2.107-3.517 2.373-3.047a1 1 0 011.736.294l2.395 7.07a1 1 0 001.663.377l2.227-2.287a.999.999 0 00.221-.35l3.198-8.623a1 1 0 01.938-.652h2.21a1 1 0 00.888-.539l1.956-3.766c.431-.832 1.667-.667 1.865.249l2.756 12.741a1 1 0 00.978.789h2.1a1 1 0 00.887-.54l1.923-3.703c.435-.838 1.683-.661 1.868.265l2.207 11.05c.201 1.01 1.614 1.092 1.931.113l1.567-4.828c.278-.856 1.457-.938 1.85-.129l1.806 3.71a1 1 0 001.616.26l1.17-1.201a1 1 0 011.7.517l2.712 14.822c.163.89 1.33 1.124 1.823.365l1.582-2.438a1 1 0 011.409-.276l1.206.838a1 1 0 001.463-.369l3.011-5.936a1 1 0 011.432-.389l2.582 1.657 3.275 1.987c.157.095.336.145.519.145h2.385a1 1 0 00.987-.837l3.345-20.309a1.01 1.01 0 01.129-.352l3.416-5.701 3.476-6.693c.025-.049.046-.1.063-.152l3.417-10.527a.995.995 0 01.234-.389l3.173-3.259c.117-.12.202-.268.247-.429l2.576-9.259c.263-.948 1.594-.985 1.91-.053l1.949 5.755a1 1 0 001.664.377l1.704-1.75a1 1 0 011.385-.046l2.543 2.285a1 1 0 01.316.57l2.492 14.077c.194 1.096 1.765 1.103 1.968.008l1.931-10.416c.179-.96 1.486-1.122 1.893-.234l2.094 4.572c.068.148.171.277.299.376l2.301 1.772a1 1 0 001.528-.396l1.593-3.682c.401-.927 1.766-.743 1.908.257l2.518 17.781c.142 1 1.507 1.184 1.908.257l1.843-4.259a1 1 0 01.918-.603h2.215a1 1 0 00.909-.583l3.247-7.086 2.903-7.827a1 1 0 011.715-.281l2.248 2.783c.106.13.243.232.398.296l.197.081a1 1 0 001.379-.886l1.686-42.956c.01-.247.111-.481.283-.658l3.083-3.167a.997.997 0 00.235-.389l3.218-9.914a1 1 0 01.951-.692h2.116a1 1 0 00.925-.62l2.655-6.477a.846.846 0 011.487-.148v0a2.538 2.538 0 004.226 0l.624-.938c.171-.257.381-.486.622-.679l1.455-1.166c.443-.355.776-.828.96-1.364l1.872-5.437c.837-2.431 4.326-2.279 4.949.216l.299 1.198c.422 1.69 2.64 2.094 3.63.661v0c.876-1.267 2.79-1.131 3.478.247l.211.424c.882 1.766 3.432 1.678 4.19-.144l2.486-5.976a2.783 2.783 0 012.022-1.659l.346-.069c.449-.09.849-.343 1.124-.709v0c.975-1.303 3.035-.814 3.321.788l1.428 8.007a2.152 2.152 0 002.118 1.774h.274c.572 0 1.103-.295 1.406-.78v0c.766-1.228 2.627-.954 3.007.442l1.083 3.979c.344 1.261 2.032 1.494 2.704.373v0a1.483 1.483 0 012.507-.06l1.106 1.661c.343.516 1 .72 1.575.49v0a1.308 1.308 0 011.777.999l1.529 9.186c.274 1.65 2.023 1.21 3.695 1.21v0c1.525 0 3.124.243 3.805-1.121l.449-.9a3 3 0 014.662-.916l.22.193a3 3 0 001.978.744h.201a3.001 3.001 0 002.979-2.646l2.125-17.883c.037-.312.123-.616.255-.902l5.638-12.235a3.03 3.03 0 00.223-.695l1.756-9.233a3 3 0 01.824-1.559l1.771-1.774c.375-.375.644-.843.778-1.357l1.026-3.902c.452-1.721 2.779-1.997 3.622-.43l.079.148a1.823 1.823 0 002.774.536v0a1.823 1.823 0 012.458.112l.652.653c.432.433.713.995.799 1.601l.902 6.323c.252 1.767 2.697 2.025 3.313.35v0c.481-1.306 2.235-1.529 3.026-.383l1.461 2.113a1.574 1.574 0 002.48.14v0c.87-.995 2.506-.539 2.735.763l1.652 9.376c.279 1.584 2.348 2.017 3.239.679v0a1.782 1.782 0 011.484-.795h.322a2.383 2.383 0 002.261-1.631l3.868-11.622a1.36 1.36 0 012.08-.676v0a1.358 1.358 0 002.146-1.022l2.285-37.528c.04-.662.298-1.292.735-1.791l2.422-2.772c.263-.302.464-.654.59-1.035l.684-2.077c.076-.23.123-.468.142-.709L345 197l.089-2.139c.124-2.962 4.011-3.969 5.557-1.44L351 194"
                        stroke="#0052FF" stroke-width="3" stroke-linecap="round" />
                    <circle opacity=".05" cx="350" cy="194" r="11" fill="#0052FF" />
                    <circle opacity=".2" cx="350" cy="194" r="7" fill="#0052FF" />
                    <circle cx="350" cy="194" r="4" fill="#0052FF" />
                    <path
                        d="M31.774 493h1.742v-9.295H31.97l-2.159 1.534v1.521l1.963-1.339V493zm4.134 0h1.729v-3.952h4.173V493h1.742v-9.295H41.81v3.952h-4.173v-3.952h-1.73V493zM91.516 493h1.742v-9.295H91.71l-2.158 1.534v1.521l1.963-1.339V493zm4.133 0h2.795c3.263 0 4.836-1.924 4.836-4.628v-.117c0-2.704-1.573-4.55-4.81-4.55h-2.821V493zm1.729-1.365v-6.565h1.001c2.184 0 3.094 1.209 3.094 3.211v.104c0 2.054-1.001 3.25-3.081 3.25h-1.014zM150.448 493h1.742v-9.295h-1.547l-2.158 1.534v1.521l1.963-1.339V493zm5.719 0h1.651l1.885-6.773 1.833 6.773h1.729l2.327-9.295h-1.612l-1.664 6.864-1.846-6.864h-1.43l-1.807 6.825-1.612-6.825h-1.768l2.314 9.295z"
                        fill="#5B616E" />
                    <path
                        d="M212.873 493h1.742v-9.295h-1.547l-2.158 1.534v1.521l1.963-1.339V493zm4.133 0h1.56v-7.02l2.821 7.02h.559l2.769-7.02V493h1.729v-9.295h-2.288l-2.392 6.344-2.444-6.344h-2.314V493z"
                        fill="#0052FF" />
                    <path
                        d="M274.568 493h1.742v-9.295h-1.547l-2.158 1.534v1.521l1.963-1.339V493zm6.369 0h1.742v-4.017l2.912-5.278h-1.69l-2.041 3.848-2.093-3.848h-1.911l3.081 5.265V493zM331.152 493h1.625l.728-2.301h3.549l.741 2.301h1.794l-3.068-9.295h-2.262L331.152 493zm4.134-7.878l1.365 4.316h-2.743l1.378-4.316zm5.63 7.878h1.573v-9.945h-1.573V493zm3.53 0h1.573v-9.945h-1.573V493z"
                        fill="#5B616E" />
                    <path
                        d="M306.668 174.755h.767v-1.651c1.69-.104 2.899-1.248 2.899-2.73 0-1.677-.988-2.288-2.899-2.626v-3.25c.962.13 1.495.65 1.69 1.651h1.014c-.169-1.508-1.144-2.392-2.704-2.535v-1.183h-.767v1.17c-1.625.104-2.743 1.157-2.743 2.509 0 1.56 1.027 2.171 2.743 2.496v3.614c-1.586-.143-1.898-1.04-2.028-2.054h-1.092c.156 1.495.897 2.782 3.12 2.938v1.651zm-1.716-8.749c0-.806.624-1.43 1.716-1.521v3.133c-1.443-.299-1.716-.793-1.716-1.612zm4.303 4.446c0 .962-.78 1.664-1.82 1.768v-3.484c1.417.299 1.82.754 1.82 1.716zm4.367 2.548h1.131v-9.295H313.7l-2.158 1.56v1.053l2.08-1.495V173zm3.6 1.599l1.599-2.717-1.053-.494-1.248 2.847.702.364zm4.157-1.599h1.131v-9.295h-1.053l-2.158 1.56v1.053l2.08-1.495V173zm6.636.117c1.573 0 3.198-.923 3.198-2.782 0-1.196-.702-2.002-1.781-2.392.858-.377 1.43-1.027 1.43-1.963 0-1.456-1.404-2.392-2.847-2.392-1.43 0-2.86.91-2.86 2.418 0 .91.52 1.612 1.404 1.95-.988.351-1.755 1.157-1.755 2.405 0 1.846 1.69 2.756 3.211 2.756zm.039-5.564c-.949 0-1.755-.559-1.755-1.534 0-.962.754-1.547 1.716-1.547s1.703.624 1.703 1.521c0 .988-.676 1.56-1.664 1.56zm-.039 4.641c-1.079 0-2.054-.65-2.054-1.872 0-1.235.975-1.872 2.08-1.872s2.015.624 2.015 1.846c0 1.235-.897 1.898-2.041 1.898zm8.289.923c2.288 0 3.601-1.82 3.601-4.524v-.52c0-2.652-1.339-4.485-3.627-4.485-2.275 0-3.666 1.768-3.666 4.511v.52c0 2.704 1.469 4.498 3.692 4.498zm0-.936c-1.547 0-2.535-1.222-2.535-3.575v-.52c0-2.288.936-3.588 2.509-3.588s2.483 1.404 2.483 3.562v.52c0 2.353-.832 3.601-2.457 3.601zm5.562.884a.83.83 0 00.832-.832.83.83 0 00-.832-.832.83.83 0 00-.832.832.83.83 0 00.832.832zm5.276.052c1.924 0 3.302-1.014 3.302-2.704 0-1.287-.702-2.054-1.794-2.34.845-.351 1.469-.975 1.469-2.028 0-1.287-1.027-2.457-2.795-2.457s-2.977 1.209-3.042 2.678h.988c.117-1.053.897-1.755 2.054-1.755 1.131 0 1.69.676 1.69 1.56 0 1.014-.533 1.586-1.742 1.586h-.65v.949h.702c1.313 0 1.963.611 1.963 1.807 0 1.092-.663 1.794-2.119 1.794-1.469 0-2.132-.845-2.236-1.95h-1.04c.065 1.625 1.274 2.86 3.25 2.86zm7.782 0c1.924 0 3.302-1.014 3.302-2.704 0-1.287-.702-2.054-1.794-2.34.845-.351 1.469-.975 1.469-2.028 0-1.287-1.027-2.457-2.795-2.457s-2.977 1.209-3.042 2.678h.988c.117-1.053.897-1.755 2.054-1.755 1.131 0 1.69.676 1.69 1.56 0 1.014-.533 1.586-1.742 1.586h-.65v.949h.702c1.313 0 1.963.611 1.963 1.807 0 1.092-.663 1.794-2.119 1.794-1.469 0-2.132-.845-2.236-1.95h-1.04c.065 1.625 1.274 2.86 3.25 2.86zM86.865 418.755h.767v-1.651c1.69-.104 2.9-1.248 2.9-2.73 0-1.677-.989-2.288-2.9-2.626v-3.25c.962.13 1.495.65 1.69 1.651h1.014c-.169-1.508-1.144-2.392-2.704-2.535v-1.183h-.767v1.17c-1.625.104-2.743 1.157-2.743 2.509 0 1.56 1.027 2.171 2.743 2.496v3.614c-1.586-.143-1.898-1.04-2.028-2.054h-1.092c.156 1.495.897 2.782 3.12 2.938v1.651zm-1.716-8.749c0-.806.624-1.43 1.716-1.521v3.133c-1.443-.299-1.716-.793-1.716-1.612zm4.303 4.446c0 .962-.78 1.664-1.82 1.768v-3.484c1.417.299 1.82.754 1.82 1.716zm5.81 2.665c1.573 0 3.198-.923 3.198-2.782 0-1.196-.701-2.002-1.78-2.392.857-.377 1.43-1.027 1.43-1.963 0-1.456-1.404-2.392-2.847-2.392-1.43 0-2.86.91-2.86 2.418 0 .91.52 1.612 1.403 1.95-.987.351-1.754 1.157-1.754 2.405 0 1.846 1.69 2.756 3.21 2.756zm.04-5.564c-.95 0-1.756-.559-1.756-1.534 0-.962.754-1.547 1.716-1.547.963 0 1.704.624 1.704 1.521 0 .988-.676 1.56-1.664 1.56zm-.04 4.641c-1.079 0-2.053-.65-2.053-1.872 0-1.235.974-1.872 2.08-1.872 1.105 0 2.014.624 2.014 1.846 0 1.235-.897 1.898-2.04 1.898zm8.29.923c2.288 0 3.601-1.82 3.601-4.524v-.52c0-2.652-1.339-4.485-3.627-4.485-2.275 0-3.666 1.768-3.666 4.511v.52c0 2.704 1.469 4.498 3.692 4.498zm0-.936c-1.547 0-2.535-1.222-2.535-3.575v-.52c0-2.288.936-3.588 2.509-3.588s2.483 1.404 2.483 3.562v.52c0 2.353-.832 3.601-2.457 3.601zm8.03.936c1.768 0 3.185-1.196 3.185-3.159 0-1.898-1.222-3.081-2.886-3.081-.884 0-1.521.286-1.898.637v-2.834h4.29v-.975h-5.226v4.979h.416c.494-.559 1.118-.897 2.197-.897 1.183 0 1.95.858 1.95 2.171 0 1.404-.78 2.249-2.041 2.249-1.417 0-1.82-.702-2.002-1.716h-1.079c.13 1.521 1.092 2.626 3.094 2.626zm5.289-.052a.83.83 0 00.832-.832.83.83 0 00-.832-.832.83.83 0 00-.832.832.83.83 0 00.832.832zm6.477-.065h1.105v-1.95h1.287v-.923h-1.287v-6.422h-1.508l-4.251 6.981v.364h4.654V417zm-3.224-2.873l3.224-5.564v5.564h-3.224zm9.739 2.99c1.768 0 3.185-1.196 3.185-3.159 0-1.898-1.222-3.081-2.886-3.081-.884 0-1.521.286-1.898.637v-2.834h4.29v-.975h-5.226v4.979h.416c.494-.559 1.118-.897 2.197-.897 1.183 0 1.95.858 1.95 2.171 0 1.404-.78 2.249-2.041 2.249-1.417 0-1.82-.702-2.002-1.716h-1.079c.13 1.521 1.092 2.626 3.094 2.626z"
                        fill="#587088" />
                    <path fill="#fff" d="M0 73h375v64H0z" />
                    <path
                        d="M25.066 85h1.729v-3.536h1.3c1.989 0 3.406-.871 3.406-2.834v-.052c0-1.95-1.365-2.873-3.445-2.873h-2.99V85zm1.729-4.784v-3.172h1.261c1.105 0 1.755.429 1.755 1.534v.052c0 1.027-.611 1.586-1.755 1.586h-1.261zm8.889 4.914c2.002 0 3.497-1.378 3.497-3.497v-.104c0-2.08-1.495-3.471-3.484-3.471-2.002 0-3.497 1.404-3.497 3.51v.104c0 2.067 1.482 3.458 3.484 3.458zm.013-1.222c-1.196 0-1.885-.871-1.885-2.262v-.104c0-1.404.715-2.249 1.885-2.249s1.872.858 1.872 2.262v.091c0 1.391-.702 2.262-1.872 2.262zM40.602 85h1.573v-3.536c0-1.443.832-1.885 2.21-1.898v-1.469c-1.144.013-1.781.52-2.21 1.378v-1.274h-1.573V85zm7.557.117c.481 0 .82-.078 1.066-.169V83.7c-.22.091-.455.13-.767.13-.494 0-.78-.273-.78-.871v-3.575h1.495v-1.183h-1.495v-1.495h-1.573v1.495h-.91v1.183h.91v3.718c0 1.287.702 2.015 2.054 2.015zM50.866 85h1.573v-5.616h1.547v-1.183H52.44v-.975c0-.585.26-1.001.897-1.001.286 0 .533.052.715.117V75.12a2.664 2.664 0 00-.897-.13c-1.456 0-2.288.806-2.288 2.301v.91h-.923v1.183h.923V85zm7.174.13c2.002 0 3.497-1.378 3.497-3.497v-.104c0-2.08-1.495-3.471-3.484-3.471-2.002 0-3.497 1.404-3.497 3.51v.104c0 2.067 1.482 3.458 3.484 3.458zm.013-1.222c-1.196 0-1.885-.871-1.885-2.262v-.104c0-1.404.715-2.249 1.885-2.249s1.872.858 1.872 2.262v.091c0 1.391-.702 2.262-1.872 2.262zM62.998 85h1.572v-9.945h-1.572V85zm4.296-7.917c.52 0 .936-.39.936-.897 0-.52-.416-.91-.936-.91s-.936.39-.936.91c0 .507.416.897.936.897zM66.527 85H68.1v-6.799h-1.573V85zm6.52.13c2.001 0 3.496-1.378 3.496-3.497v-.104c0-2.08-1.495-3.471-3.484-3.471-2.002 0-3.497 1.404-3.497 3.51v.104c0 2.067 1.482 3.458 3.484 3.458zm.012-1.222c-1.196 0-1.885-.871-1.885-2.262v-.104c0-1.404.715-2.249 1.885-2.249s1.872.858 1.872 2.262v.091c0 1.391-.702 2.262-1.872 2.262zm11.799 1.222c1.755 0 3.016-1.326 3.016-3.51v-.104c0-2.197-1.313-3.458-3.016-3.458-1.001 0-1.846.585-2.223 1.235v-4.238h-1.573V85h1.573v-1.092c.364.689 1.144 1.222 2.223 1.222zm-.39-1.248c-1.144 0-1.885-.715-1.885-2.236v-.104c0-1.508.78-2.249 1.872-2.249 1.027 0 1.807.741 1.807 2.249v.104c0 1.456-.637 2.236-1.794 2.236zm6.602 1.248c1.04 0 1.638-.377 2.08-.962V85h1.546v-4.459c0-1.859-1.195-2.483-2.716-2.483-1.522 0-2.782.663-2.913 2.249h1.522c.078-.676.48-1.066 1.3-1.066.922 0 1.235.455 1.235 1.365v.351h-.846c-1.95 0-3.484.572-3.484 2.158 0 1.417 1.028 2.015 2.276 2.015zm.377-1.131c-.78 0-1.093-.377-1.093-.949 0-.832.767-1.105 1.963-1.105h.807v.676c0 .871-.715 1.378-1.677 1.378zM96.537 85h1.574v-9.945h-1.573V85zm5.272.13c1.04 0 1.638-.377 2.08-.962V85h1.547v-4.459c0-1.859-1.196-2.483-2.717-2.483-1.521 0-2.782.663-2.912 2.249h1.521c.078-.676.481-1.066 1.3-1.066.923 0 1.235.455 1.235 1.365v.351h-.845c-1.95 0-3.484.572-3.484 2.158 0 1.417 1.027 2.015 2.275 2.015zm.377-1.131c-.78 0-1.092-.377-1.092-.949 0-.832.767-1.105 1.963-1.105h.806v.676c0 .871-.715 1.378-1.677 1.378zM107.24 85h1.573v-4.004c0-1.079.715-1.625 1.599-1.625.936 0 1.352.468 1.352 1.495V85h1.573v-4.277c0-1.872-.962-2.665-2.327-2.665-1.118 0-1.872.559-2.197 1.222v-1.079h-1.573V85zm10.886.13c1.846 0 3.029-1.105 3.146-2.665h-1.443c-.091.962-.806 1.456-1.638 1.456-1.157 0-1.885-.78-1.885-2.262v-.104c0-1.404.767-2.236 1.846-2.236.832 0 1.43.377 1.56 1.287h1.521c-.182-1.872-1.599-2.548-3.107-2.548-1.898 0-3.432 1.365-3.432 3.523v.104c0 2.171 1.482 3.445 3.432 3.445zm7.49 0c1.742 0 2.899-.78 3.12-2.21h-1.521c-.117.663-.611 1.04-1.56 1.04-1.17 0-1.82-.728-1.872-2.015h4.979v-.455c0-2.431-1.521-3.432-3.211-3.432-1.937 0-3.38 1.404-3.38 3.51v.104c0 2.145 1.443 3.458 3.445 3.458zm-1.807-4.238c.156-1.053.793-1.69 1.742-1.69.975 0 1.573.52 1.651 1.69h-3.393z"
                        fill="#708599" />
                    <g clip-path="url(#clip1)">
                        <path
                            d="M32.008 125.78h1.876v-3.528c4.116-.28 6.552-2.884 6.552-6.16 0-3.78-2.408-5.18-6.552-5.852v-5.74c1.708.28 2.576 1.26 2.884 2.968h3.304c-.336-3.472-2.576-5.348-6.188-5.684v-2.548h-1.876v2.52c-3.808.252-6.3 2.576-6.3 5.684 0 3.556 2.156 5.068 6.3 5.768v6.3c-2.66-.336-3.276-1.876-3.5-3.696h-3.472c.28 3.388 2.184 6.104 6.972 6.44v3.528zm-2.996-18.648c0-1.4 1.064-2.492 2.996-2.716v5.516c-2.464-.504-2.996-1.344-2.996-2.8zm7.98 9.296c0 1.652-1.232 2.828-3.108 3.08v-5.992c2.436.532 3.108 1.316 3.108 2.912zM46.337 122h3.752v-20.02h-3.332l-4.648 3.304v3.276l4.228-2.884V122zm8.466 3.444l3.668-6.272-3.22-1.288-2.548 6.636 2.1.924zm7.75-3.444h3.752v-20.02h-3.332l-4.648 3.304v3.276l4.228-2.884V122zm9.743 0h3.836l7.28-19.572v-.448h-14v3.024h9.324L72.296 122zm19.64.28c4.537 0 7.393-2.744 7.393-6.804 0-3.892-2.744-6.524-6.58-6.524-2.38 0-4.032 1.036-4.956 2.576.112-4.564 1.876-6.944 4.564-6.944 1.932 0 2.716.896 3.08 2.408h3.472c-.476-3.5-2.884-5.292-6.524-5.292-4.788 0-8.288 3.78-8.288 10.724v.476c0 5.292 2.016 9.38 7.84 9.38zm-.055-2.744c-2.268 0-3.864-1.54-3.864-4.2 0-2.212 1.596-3.808 3.864-3.808 2.296 0 3.752 1.624 3.752 4.032 0 2.38-1.512 3.976-3.752 3.976zm11.486 2.66c1.26 0 2.24-.952 2.24-2.184 0-1.232-.98-2.212-2.24-2.212-1.232 0-2.212.98-2.212 2.212 0 1.232.98 2.184 2.212 2.184zm6.521-.196h3.752v-20.02h-3.332l-4.648 3.304v3.276l4.228-2.884V122zm11.061 0h3.752v-20.02h-3.332l-4.648 3.304v3.276l4.228-2.884V122z"
                            fill="#050F19" />
                    </g>
                    <g filter="url(#filter1_d)">
                        <path fill-rule="evenodd" clip-rule="evenodd" d="M375 812v-80H0v80h375z" fill="#fff" />
                    </g>
                    <path d="M0 732h375" stroke="#F1F3F5" />
                    <path fill="#fff" d="M0 744h375v56H0z" />
                    <path
                        d="M38.533 785h1.33v-3.04h3.21V785h1.34v-7.15h-1.34v3.04h-3.21v-3.04h-1.33V785zm9.71.1c1.54 0 2.69-1.06 2.69-2.69v-.08c0-1.6-1.15-2.67-2.68-2.67-1.54 0-2.69 1.08-2.69 2.7v.08c0 1.59 1.14 2.66 2.68 2.66zm.01-.94c-.92 0-1.45-.67-1.45-1.74v-.08c0-1.08.55-1.73 1.45-1.73.9 0 1.44.66 1.44 1.74v.07c0 1.07-.54 1.74-1.44 1.74zm3.774.84h1.21v-3.13c0-.8.55-1.2 1.15-1.2.59 0 .93.33.93 1.1V785h1.21v-3.13c0-.8.55-1.2 1.15-1.2.6 0 .93.33.93 1.1V785h1.21v-3.31c0-1.44-.78-2.03-1.74-2.03-.65 0-1.37.29-1.77.94-.26-.65-.8-.94-1.48-.94-.77 0-1.34.42-1.59.91v-.8h-1.21V785zm11.48.1c1.34 0 2.23-.6 2.4-1.7h-1.17c-.09.51-.47.8-1.2.8-.9 0-1.4-.56-1.44-1.55h3.83v-.35c0-1.87-1.17-2.64-2.47-2.64-1.49 0-2.6 1.08-2.6 2.7v.08c0 1.65 1.11 2.66 2.65 2.66zm-1.39-3.26c.12-.81.61-1.3 1.34-1.3.75 0 1.21.4 1.27 1.3h-2.61zM52 756l-8 5v11h6v-7h4v7h6v-11l-8-5z"
                        fill="#5B616E" />
                    <path
                        d="M100.424 785h1.33v-2.72h1c1.53 0 2.62-.67 2.62-2.18v-.04c0-1.5-1.05-2.21-2.65-2.21h-2.3V785zm1.33-3.68v-2.44h.97c.85 0 1.35.33 1.35 1.18v.04c0 .79-.47 1.22-1.35 1.22h-.97zm6.838 3.78c1.54 0 2.69-1.06 2.69-2.69v-.08c0-1.6-1.15-2.67-2.68-2.67-1.54 0-2.69 1.08-2.69 2.7v.08c0 1.59 1.14 2.66 2.68 2.66zm.01-.94c-.92 0-1.45-.67-1.45-1.74v-.08c0-1.08.55-1.73 1.45-1.73.9 0 1.44.66 1.44 1.74v.07c0 1.07-.54 1.74-1.44 1.74zm3.773.84h1.21v-2.72c0-1.11.64-1.45 1.7-1.46v-1.13c-.88.01-1.37.4-1.7 1.06v-.98h-1.21V785zm5.813.09c.37 0 .63-.06.82-.13V784c-.17.07-.35.1-.59.1-.38 0-.6-.21-.6-.67v-2.75h1.15v-.91h-1.15v-1.15h-1.21v1.15h-.7v.91h.7v2.86c0 .99.54 1.55 1.58 1.55zm2.083-.09h1.21v-4.32h1.19v-.91h-1.19v-.75c0-.45.2-.77.69-.77.22 0 .41.04.55.09v-.94c-.22-.07-.4-.1-.69-.1-1.12 0-1.76.62-1.76 1.77v.7h-.71v.91h.71V785zm5.518.1c1.54 0 2.69-1.06 2.69-2.69v-.08c0-1.6-1.15-2.67-2.68-2.67-1.54 0-2.69 1.08-2.69 2.7v.08c0 1.59 1.14 2.66 2.68 2.66zm.01-.94c-.92 0-1.45-.67-1.45-1.74v-.08c0-1.08.55-1.73 1.45-1.73.9 0 1.44.66 1.44 1.74v.07c0 1.07-.54 1.74-1.44 1.74zm3.804.84h1.21v-7.65h-1.21V785zm3.304-6.09c.4 0 .72-.3.72-.69 0-.4-.32-.7-.72-.7-.4 0-.72.3-.72.7 0 .39.32.69.72.69zm-.59 6.09h1.21v-5.23h-1.21V785zm5.015.1c1.54 0 2.69-1.06 2.69-2.69v-.08c0-1.6-1.15-2.67-2.68-2.67-1.54 0-2.69 1.08-2.69 2.7v.08c0 1.59 1.14 2.66 2.68 2.66zm.01-.94c-.92 0-1.45-.67-1.45-1.74v-.08c0-1.08.55-1.73 1.45-1.73.9 0 1.44.66 1.44 1.74v.07c0 1.07-.54 1.74-1.44 1.74zM119.25 757.5c-4 0-7.25 3.25-7.25 7.25s3.25 7.25 7.25 7.25 7.25-3.25 7.25-7.25h-7.25v-7.25z"
                        fill="#0052FF" />
                    <path d="M120.75 756v7.25H128c0-4-3.25-7.25-7.25-7.25z" fill="#0052FF" />
                    <g clip-path="url(#clip2)">
                        <path fill="#fff" d="M168 752h40v40h-40z" />
                        <path d="M168 772c0-11 9-20 20-20s20 9 20 20-9 20-20 20-20-9-20-20z" fill="#0052FF" />
                        <path d="M197 769l-4 4v-3h-7v-2h7v-3l4 4zM183 774h7v2h-7v3l-4-4 4-4v3z" fill="#fff" />
                    </g>
                    <path
                        d="M242.157 785h1.33v-2.72h1c1.53 0 2.62-.67 2.62-2.18v-.04c0-1.5-1.05-2.21-2.65-2.21h-2.3V785zm1.33-3.68v-2.44h.97c.85 0 1.35.33 1.35 1.18v.04c0 .79-.47 1.22-1.35 1.22h-.97zm4.664 3.68h1.21v-2.72c0-1.11.64-1.45 1.7-1.46v-1.13c-.88.01-1.37.4-1.7 1.06v-.98h-1.21V785zm4.594-6.09c.4 0 .72-.3.72-.69 0-.4-.32-.7-.72-.7-.4 0-.72.3-.72.7 0 .39.32.69.72.69zm-.59 6.09h1.21v-5.23h-1.21V785zm4.975.1c1.42 0 2.33-.85 2.42-2.05h-1.11c-.07.74-.62 1.12-1.26 1.12-.89 0-1.45-.6-1.45-1.74v-.08c0-1.08.59-1.72 1.42-1.72.64 0 1.1.29 1.2.99h1.17c-.14-1.44-1.23-1.96-2.39-1.96-1.46 0-2.64 1.05-2.64 2.71v.08c0 1.67 1.14 2.65 2.64 2.65zm5.762 0c1.34 0 2.23-.6 2.4-1.7h-1.17c-.09.51-.47.8-1.2.8-.9 0-1.4-.56-1.44-1.55h3.83v-.35c0-1.87-1.17-2.64-2.47-2.64-1.49 0-2.6 1.08-2.6 2.7v.08c0 1.65 1.11 2.66 2.65 2.66zm-1.39-3.26c.12-.81.61-1.3 1.34-1.3.75 0 1.21.4 1.27 1.3h-2.61zm6.73 3.26c1.34 0 2.09-.61 2.09-1.67 0-1.11-.73-1.41-1.96-1.6-.83-.14-1.08-.29-1.08-.67 0-.37.31-.62.83-.62.56 0 .83.22.93.7h1.12c-.13-1.18-.98-1.58-2.05-1.58-.98 0-1.96.52-1.96 1.57 0 .98.51 1.37 1.89 1.59.77.13 1.12.29 1.12.72 0 .44-.29.67-.94.67-.71 0-.98-.31-1.04-.84h-1.14c.05 1.11.84 1.73 2.19 1.73zM252 766.67h-4V772h4v-5.33zM258 761.33h-4V772h4v-10.67zM264 756h-4v16h4v-16zM307.445 785.1c1.58 0 2.63-.97 2.63-2.21 0-1.43-.87-1.91-2.55-2.14-1.24-.18-1.48-.47-1.48-1.05 0-.55.42-.94 1.23-.94.82 0 1.25.32 1.38 1.07h1.22c-.14-1.37-1.06-2.07-2.6-2.07-1.49 0-2.49.88-2.49 2.05 0 1.34.81 1.86 2.52 2.09 1.16.19 1.49.44 1.49 1.1 0 .66-.56 1.1-1.35 1.1-1.21 0-1.5-.6-1.59-1.32h-1.28c.1 1.35.92 2.32 2.87 2.32zm6.128 0c1.34 0 2.23-.6 2.4-1.7h-1.17c-.09.51-.47.8-1.2.8-.9 0-1.4-.56-1.44-1.55h3.83v-.35c0-1.87-1.17-2.64-2.47-2.64-1.49 0-2.6 1.08-2.6 2.7v.08c0 1.65 1.11 2.66 2.65 2.66zm-1.39-3.26c.12-.81.61-1.3 1.34-1.3.75 0 1.21.4 1.27 1.3h-2.61zm6.671 3.25c.37 0 .63-.06.82-.13V784c-.17.07-.35.1-.59.1-.38 0-.6-.21-.6-.67v-2.75h1.15v-.91h-1.15v-1.15h-1.21v1.15h-.7v.91h.7v2.86c0 .99.54 1.55 1.58 1.55zm3.691 0c.37 0 .63-.06.82-.13V784c-.17.07-.35.1-.59.1-.38 0-.6-.21-.6-.67v-2.75h1.15v-.91h-1.15v-1.15h-1.21v1.15h-.7v.91h.7v2.86c0 .99.54 1.55 1.58 1.55zm2.531-6.18c.4 0 .72-.3.72-.69 0-.4-.32-.7-.72-.7-.4 0-.72.3-.72.7 0 .39.32.69.72.69zm-.59 6.09h1.21v-5.23h-1.21V785zm2.685 0h1.21v-3.08c0-.83.55-1.25 1.23-1.25.72 0 1.04.36 1.04 1.15V785h1.21v-3.29c0-1.44-.74-2.05-1.79-2.05-.86 0-1.44.43-1.69.94v-.83h-1.21V785zm8.314 1.92c1.62 0 2.65-.77 2.66-2.31v-4.84h-1.21v.8c-.3-.52-.82-.91-1.68-.91-1.35 0-2.35 1.1-2.35 2.57v.07c0 1.51 1.01 2.49 2.32 2.49.77 0 1.42-.47 1.71-.97v.77c0 .94-.52 1.41-1.46 1.41-.79 0-1.19-.3-1.29-.82h-1.22c.14 1 .88 1.74 2.52 1.74zm.04-3.06c-.78 0-1.38-.6-1.38-1.57v-.08c0-.95.52-1.6 1.42-1.6.87 0 1.41.59 1.41 1.58v.07c0 1-.61 1.6-1.45 1.6zm5.848 1.24c1.34 0 2.09-.61 2.09-1.67 0-1.11-.73-1.41-1.96-1.6-.83-.14-1.08-.29-1.08-.67 0-.37.31-.62.83-.62.56 0 .83.22.93.7h1.12c-.13-1.18-.98-1.58-2.05-1.58-.98 0-1.96.52-1.96 1.57 0 .98.51 1.37 1.89 1.59.77.13 1.12.29 1.12.72 0 .44-.29.67-.94.67-.71 0-.98-.31-1.04-.84h-1.14c.05 1.11.84 1.73 2.19 1.73z"
                        fill="#5B616E" />
                    <path fill-rule="evenodd" clip-rule="evenodd"
                        d="M327.75 759.75a3.75 3.75 0 11-7.5 0 3.75 3.75 0 017.5 0zm-.76 4.26c1.22.03 2.31.79 2.74 1.94L332 772h-16l2.27-6.05a2.984 2.984 0 012.74-1.94c.04.03 1.36.99 2.99.99 1.63 0 2.95-.96 2.99-.99z"
                        fill="#5B616E" />
                </g>
                <defs>
                    <clipPath id="clip0">
                        <path fill="#fff" d="M0 0h375v812H0z" />
                    </clipPath>
                    <clipPath id="clip1">
                        <path fill="#fff" transform="translate(24 96)" d="M0 0h104v34H0z" />
                    </clipPath>
                    <clipPath id="clip2">
                        <path fill="#fff" transform="translate(168 752)" d="M0 0h40v40H0z" />
                    </clipPath>
                    <filter id="filter0_d" x="12" y="673" width="56" height="56" filterUnits="userSpaceOnUse"
                        color-interpolation-filters="sRGB">
                        <feFlood flood-opacity="0" result="BackgroundImageFix" />
                        <feColorMatrix in="SourceAlpha" values="0 0 0 0 0 0 0 0 0 0 0 0 0 0 0 0 0 0 127 0" />
                        <feOffset />
                        <feGaussianBlur stdDeviation="6" />
                        <feColorMatrix values="0 0 0 0 1 0 0 0 0 1 0 0 0 0 1 0 0 0 1 0" />
                        <feBlend in2="BackgroundImageFix" result="effect1_dropShadow" />
                        <feBlend in="SourceGraphic" in2="effect1_dropShadow" result="shape" />
                    </filter>
                    <filter id="filter1_d" x="-12" y="728" width="399" height="104" filterUnits="userSpaceOnUse"
                        color-interpolation-filters="sRGB">
                        <feFlood flood-opacity="0" result="BackgroundImageFix" />
                        <feColorMatrix in="SourceAlpha" values="0 0 0 0 0 0 0 0 0 0 0 0 0 0 0 0 0 0 127 0" />
                        <feOffset dy="8" />
                        <feGaussianBlur stdDeviation="6" />
                        <feColorMatrix values="0 0 0 0 0.0666667 0 0 0 0 0.2 0 0 0 0 0.333333 0 0 0 0.02 0" />
                        <feBlend in2="BackgroundImageFix" result="effect1_dropShadow" />
                        <feBlend in="SourceGraphic" in2="effect1_dropShadow" result="shape" />
                    </filter>
                    <linearGradient id="paint0_linear" x1="375" y1="302" x2="0" y2="302" gradientUnits="userSpaceOnUse">
                        <stop />
                        <stop offset="1" stop-color="#fff" stop-opacity="0" />
                    </linearGradient>
                </defs>
            </svg>
        </pattern>
    </defs>
</svg>