<svg width="32" height="32" viewBox="0 0 32 32" fill="none" xmlns="http://www.w3.org/2000/svg">
<path d="M16 32C24.8366 32 32 24.8366 32 16C32 7.16344 24.8366 0 16 0C7.16344 0 0 7.16344 0 16C0 24.8366 7.16344 32 16 32Z" fill="#1E65F3"/>
<path d="M21.29 9.54996L19.62 10.34C19.61 10.34 19.6 10.35 19.6 10.36C19.59 10.37 19.59 10.38 19.59 10.38C19.59 10.39 19.59 10.4 19.59 10.41C19.59 10.42 19.59 10.43 19.6 10.44L22.14 15.78C23.08 17.77 22.83 19.28 21.4 19.96C20.24 20.51 19.24 20.13 18.46 18.79L15.46 12.46C14.24 9.88996 12.58 9.20996 10.62 10.15C9.34 10.76 8.6 11.84 8.61 13.22C8.61 13.24 8.6 13.25 8.6 13.27C8.59 13.28 8.58 13.29 8.56 13.3C8.54 13.3 8.53 13.3 8.51 13.29C8.5 13.28 8.48 13.27 8.48 13.26L7.8 11.86C7.8 11.85 7.79 11.84 7.78 11.84C7.77 11.83 7.76 11.83 7.76 11.83C7.75 11.83 7.74 11.83 7.73 11.83C7.72 11.83 7.71 11.83 7.7 11.84L6.03 12.63C6.02 12.62 6.01 12.64 6 12.66C6 12.67 6 12.69 6.01 12.71L10.61 22.42C10.62 22.44 10.63 22.45 10.65 22.46C10.67 22.47 10.69 22.47 10.7 22.46L12.37 21.67C12.38 21.67 12.39 21.66 12.39 21.65C12.4 21.64 12.4 21.63 12.4 21.63C12.4 21.62 12.4 21.61 12.4 21.6C12.4 21.59 12.4 21.58 12.39 21.57L9.93 16.37C8.93 14.25 9.12 12.72 10.66 11.99C11.84 11.43 12.76 11.81 13.58 13.24C13.58 13.24 13.58 13.24 13.58 13.25L16.55 19.52C17.7 21.94 19.48 22.77 21.36 21.87C22.81 21.18 23.42 20.14 23.38 18.78C23.38 18.76 23.38 18.75 23.39 18.73C23.4 18.72 23.41 18.71 23.43 18.7C23.45 18.7 23.46 18.7 23.48 18.71C23.49 18.72 23.51 18.73 23.51 18.74L24.17 20.14C24.17 20.15 24.18 20.16 24.19 20.16C24.2 20.17 24.21 20.17 24.21 20.17C24.22 20.17 24.23 20.17 24.24 20.17C24.25 20.17 24.26 20.17 24.27 20.16L25.94 19.37C25.95 19.37 25.96 19.36 25.96 19.35C25.97 19.34 25.97 19.33 25.97 19.33C25.97 19.32 25.97 19.31 25.97 19.3C25.97 19.29 25.97 19.28 25.96 19.27L21.36 9.55996C21.35 9.53996 21.34 9.52996 21.32 9.51996C21.3 9.50996 21.31 9.53996 21.29 9.54996Z" fill="white"/>
</svg>
