<svg width="32" height="32" viewBox="0 0 32 32" fill="none" xmlns="http://www.w3.org/2000/svg">
<path d="M16 32C24.8366 32 32 24.8366 32 16C32 7.16344 24.8366 0 16 0C7.16344 0 0 7.16344 0 16C0 24.8366 7.16344 32 16 32Z" fill="#0E1117"/>
<path fill-rule="evenodd" clip-rule="evenodd" d="M8 23.03V8.97998H21.01V10.56H9.56V21.46H21.01V23.03H8ZM21.9099 13.5C22.1699 13.75 22.2999 14.04 22.2999 14.37L23.8499 14.41C23.8499 14.41 23.8499 13.66 23.6599 13.29C23.5099 12.98 23.3399 12.7 23.0799 12.46C22.8299 12.22 22.5099 12.03 22.1299 11.89C21.7499 11.75 21.3199 11.68 20.8299 11.68C20.3899 11.68 19.9999 11.74 19.6499 11.86C19.2999 11.98 18.9999 12.14 18.7499 12.36C18.4999 12.58 18.3099 12.83 18.1699 13.12C18.0299 13.41 17.9599 13.73 17.9599 14.07V14.14C17.9599 14.55 18.0399 14.9 18.1799 15.19C18.3299 15.48 18.5199 15.72 18.7799 15.91C19.0299 16.1 19.3399 16.25 19.6799 16.37C20.0299 16.48 20.4099 16.58 20.8299 16.65C21.1399 16.7 21.3999 16.77 21.6099 16.85C21.8199 16.93 21.9899 17.02 22.0999 17.12C22.2199 17.22 22.2999 17.33 22.3499 17.45C22.3999 17.58 22.4199 17.7 22.4199 17.84C22.4199 18.12 22.3099 18.37 22.0799 18.58C21.8499 18.79 21.4899 18.89 21.0199 18.89C20.4099 18.89 19.9699 18.74 19.6799 18.44C19.3899 18.14 19.2499 17.74 19.2499 17.24H17.6899V17.31C17.6899 17.74 17.7699 18.15 17.9099 18.52C18.0399 18.89 18.2599 19.21 18.5299 19.49C18.7999 19.77 19.1399 19.99 19.5599 20.14C19.9799 20.29 20.4499 20.37 20.9999 20.37C21.4699 20.37 21.8899 20.31 22.2599 20.19C22.6399 20.06 22.9499 19.89 23.2099 19.67C23.4699 19.44 23.6699 19.17 23.8099 18.86C23.9499 18.54 24.0199 18.19 24.0199 17.8V17.65C24.0199 16.92 23.7899 16.37 23.3299 15.99C22.8699 15.62 22.2099 15.35 21.3399 15.19C20.9999 15.13 20.7099 15.06 20.4899 14.99C20.2599 14.91 20.0799 14.83 19.9399 14.74C19.7999 14.65 19.7099 14.55 19.6499 14.43C19.5899 14.32 19.5599 14.19 19.5599 14.04C19.5599 13.76 19.6699 13.55 19.8999 13.38C20.1299 13.21 20.4399 13.13 20.8299 13.13C21.2899 13.13 21.6499 13.25 21.9099 13.5Z" fill="white"/>
</svg>
